<?xml version="1.0" encoding="UTF-8"?><svg id="a" xmlns="http://www.w3.org/2000/svg" width="799.68" height="194.4" viewBox="0 0 799.68 194.4"><g><g><path d="M8.13,96.27c0-22.39,17.32-39.57,39.85-39.57,17.6,0,31.12,9.72,37.03,24.08l-17.88,7.18c-3.1-8.17-10.14-13.09-18.87-13.09-11.69,0-20.84,9.58-20.84,21.4s9.29,21.12,20.98,21.12c9.01,0,15.77-5.49,18.87-13.24l18.16,7.46c-6.48,14.08-19.15,24.22-37.31,24.22-22.81,0-39.99-17.46-39.99-39.57Z" fill="#021660"/><path d="M92.29,96.27c0-21.97,17.32-39.57,40.13-39.57s40.27,17.6,40.27,39.57-17.32,39.57-40.27,39.57-40.13-17.74-40.13-39.57Zm61.11-.14c0-11.83-9.29-21.26-20.84-21.26s-20.84,9.43-20.84,21.26,9.15,21.26,20.84,21.26,20.84-9.43,20.84-21.26Z" fill="#021660"/><path d="M171.99,58.25h20.56l18.73,51.25,18.87-51.25h20.14l-29.85,76.04h-19.29l-29.15-76.04Z" fill="#021660"/><path d="M251.6,96.41c0-22.11,17.18-39.71,39.85-39.71s39.29,16.48,39.29,39v7.32h-60.41c2.53,9.86,10.56,16.05,21.83,16.05,9.01,0,15.07-3.94,18.87-10.14l15.91,9.29c-7.6,10.7-18.3,17.6-35.06,17.6-24.5,0-40.27-17.32-40.27-39.43Zm19.29-8.59h40.55c-2.53-9.43-9.86-14.64-19.99-14.64s-17.46,5.77-20.56,14.64Z" fill="#021660"/><path d="M335.8,58.25h14.08v-16.48l19.15-11.26v27.74h19.99v17.18h-19.99v31.26c0,8.03,3.38,10.84,8.31,10.84,2.68,0,4.79-.84,7.04-2.82l8.87,15.21c-4.93,3.66-11.13,5.77-18.17,5.77-15.91,0-25.2-7.6-25.2-28.3v-31.96h-14.08v-17.18Z" fill="#021660"/><path d="M405.98,58.25h19.15v11.69c3.66-9.01,11.26-13.09,20.98-13.09,5.07,0,9.58,1.27,12.81,2.96l-7.04,19.15c-2.11-1.55-5.77-2.68-10.14-2.68-10,0-16.47,5.07-16.47,17.88v40.13h-19.29V58.25Z" fill="#021660"/><path d="M465.26,103.87V58.25h19.85v42.95c0,10.7,5.07,17.32,15.49,17.32,9.15,0,15.91-6.62,15.91-18.44V58.25l19.71-.14v76.04l-19.43,.14v-9.58c-4.93,6.9-12.67,11.12-21.97,11.12-18.73,0-29.57-11.97-29.57-31.96Z" fill="#021660"/><path d="M548.34,116.97l18.73-7.32c3.38,6.76,9.43,10.28,17.46,10.28s12.11-3.8,12.11-8.31c0-5.49-8.17-6.76-17.88-8.73-12.81-2.68-27.04-6.62-27.04-22.67,0-12.81,12.39-23.94,31.12-23.8,16.05,0,25.63,6.05,32.67,16.19l-17.74,7.18c-3.1-5.07-7.89-8.03-14.93-8.03-7.6,0-11.26,3.1-11.26,7.32,0,4.79,6.19,6.06,17.32,8.45,12.67,2.53,27.6,6.9,27.6,23.23,0,11.83-10.56,25.21-32.67,25.06-18.02,0-29.43-6.76-35.48-18.87Z" fill="#021660"/></g><g><polygon points="720.92 97.03 652.39 58.36 652.39 135.71 720.92 97.03" fill="#021660"/><polygon points="720.92 97.03 652.39 135.71 720.92 174.38 789.45 135.71 720.92 97.03" fill="#27bdbe"/><polygon points="720.92 19.68 652.39 58.36 720.92 97.03 789.45 58.36 720.92 19.68" fill="#ed3030"/></g></g><path d="M786.88,154.13c1.09,.63,1.94,1.48,2.57,2.57,.63,1.08,.94,2.29,.94,3.6s-.31,2.54-.94,3.62-1.49,1.94-2.58,2.58c-1.09,.63-2.3,.95-3.62,.95s-2.52-.32-3.61-.95c-1.09-.63-1.95-1.49-2.58-2.58-.63-1.09-.94-2.29-.94-3.62s.31-2.53,.94-3.62c.63-1.08,1.48-1.93,2.57-2.56,1.08-.63,2.29-.94,3.62-.94s2.54,.31,3.62,.94Zm-.47,11.62c.94-.55,1.68-1.3,2.22-2.25,.54-.95,.81-2.02,.81-3.19s-.27-2.21-.81-3.16-1.28-1.7-2.22-2.24c-.94-.54-1.99-.82-3.15-.82s-2.21,.27-3.16,.82c-.95,.55-1.69,1.29-2.23,2.24-.54,.95-.81,2-.81,3.16s.27,2.24,.81,3.19,1.28,1.71,2.23,2.25c.95,.55,2,.82,3.16,.82s2.21-.27,3.15-.82Zm-.72-3.8l1.54,2.59h-1.64l-1.58-2.71c-.16-.25-.33-.42-.51-.52-.18-.1-.42-.15-.71-.15h-1.05v3.38h-1.46v-8.43h3.52c.94,0,1.66,.22,2.16,.66,.51,.44,.76,1.06,.76,1.85,0,.65-.19,1.18-.56,1.61-.38,.43-.91,.69-1.59,.8,.44,.12,.81,.43,1.13,.93Zm-.83-2.26c.26-.22,.39-.56,.39-1.02,0-.49-.13-.84-.39-1.06s-.68-.33-1.24-.33h-1.88v2.73h1.88c.57,0,.98-.11,1.24-.33Z" fill="#021660"/></svg>