<svg width="40" height="40" viewBox="0 0 40 40" fill="none" xmlns="http://www.w3.org/2000/svg">
<rect width="40" height="40" fill="white"/>
<path d="M6.85436 32.3749C6.85436 32.3749 8.56534 33.0593 8.56534 33.7437C8.56534 33.7437 8.45131 34.3141 7.88098 34.3141C7.31065 34.3141 6.51218 33.4015 6.51218 32.9453C6.51218 32.489 6.85436 32.3749 6.85436 32.3749Z" fill="black"/>
<path d="M5.02662 23.8216C4.91255 23.8216 4.91255 23.7075 5.02662 23.8216C4.91255 23.7075 4.91255 23.7075 4.91255 23.7075C4.57035 23.8216 4 24.2778 4 25.0763C4 28.1561 12.3268 28.4983 16.8894 34.0875C17.3457 34.6578 18.1442 35 18.9426 35C19.9692 35 20.9958 34.8859 21.9083 34.7719C22.0224 34.7719 22.1365 34.6578 22.1365 34.5437C22.1365 34.4297 22.1365 34.3156 22.1365 34.2016C16.5473 26.5592 5.93914 28.3842 5.02662 23.8216Z" fill="black"/>
<path d="M17.0065 14.1243C16.4362 13.554 14.9533 14.0103 14.1549 14.6947C13.3564 15.3791 13.6986 15.8353 13.6986 15.8353C14.383 14.9228 15.4096 14.4665 16.094 14.3525C16.6643 14.3525 17.0065 14.1243 17.0065 14.1243Z" fill="black"/>
<path d="M34.1165 15.7222C34.1165 15.7222 32.9758 15.9503 31.9492 14.8097C31.9492 14.8097 32.4055 14.8097 32.5195 14.2393C32.4055 14.2393 33.0899 15.494 34.1165 15.7222ZM33.7743 20.9692C33.7743 20.9692 33.5461 22.2239 32.0633 22.2239C30.4663 22.2239 29.0976 20.0567 28.6413 14.9237C28.9835 15.4941 29.4398 16.0644 29.6679 16.7488C29.6679 16.0644 30.0101 14.8097 28.4132 13.669C28.4132 13.669 32.6336 14.5815 32.7477 18.916C32.7477 19.7145 32.2914 20.3989 32.0633 20.7411C32.0633 20.7411 31.8351 20.8551 31.9492 21.1973C32.0633 21.4255 32.4055 21.4255 32.7477 21.0833C33.0899 20.7411 33.7743 20.2848 33.7743 20.9692ZM27.8429 23.3646C27.8429 23.3646 26.7022 25.5318 25.1053 25.5318C24.4209 25.5318 23.9646 25.0756 23.9646 24.5052C23.9646 23.9349 24.7631 21.6536 28.071 21.6536C28.8694 21.6536 29.4398 21.7677 29.4398 22.338C29.5538 22.6802 28.7554 23.4786 27.8429 23.3646ZM27.8429 12.5283C27.8429 12.5283 27.3866 12.4143 27.5006 11.7299C27.6147 11.5017 27.6147 11.5017 27.6147 11.1595C27.6147 10.8173 27.7288 10.4752 27.9569 10.3611C27.9569 10.3611 28.4132 10.3611 28.4132 11.6158C28.4132 12.1861 27.8429 12.5283 27.8429 12.5283ZM26.36 12.5283C25.6756 12.4143 26.1318 11.3877 25.6756 11.3877C25.4475 11.3877 25.4475 12.5283 25.2193 12.4143C24.7631 12.0721 25.1053 11.2736 25.1053 10.9314C25.1053 10.5892 25.3334 10.133 24.9912 10.3611C24.649 10.5892 24.4209 11.1595 24.3068 11.6158C24.1927 12.0721 24.4209 12.3002 24.649 12.8705C24.8771 13.4409 24.5349 13.2127 24.5349 13.2127C22.8239 12.1862 24.0787 9.90481 24.0787 9.90481C24.8771 8.65009 26.0178 8.9923 26.0178 8.9923C26.2459 9.10637 26.2459 9.22042 26.2459 9.44856C26.2459 9.67669 26.36 9.79075 26.5881 9.90481C26.9303 10.0189 27.0444 10.3611 27.0444 11.0455C27.0444 11.8439 26.5881 12.6424 26.36 12.5283ZM28.9835 12.4143L31.8352 13.3268C31.8352 13.3268 32.4055 14.3534 31.2648 14.0112C30.2382 13.669 29.2116 13.4409 29.2116 13.4409C29.2116 13.4409 28.7554 13.0987 28.9835 12.4143ZM14.9534 16.7488C12.9002 17.0909 12.2158 16.5206 12.2158 15.9503C12.2158 14.3534 16.8926 13.0987 18.1473 13.0987C18.3754 13.4409 17.9191 13.4409 17.8051 14.0112C17.5769 14.5815 17.1207 14.8097 16.4363 14.9237C15.7519 15.0378 15.0675 15.38 14.6112 15.7222C14.155 16.0644 14.6112 16.2925 15.4097 16.0644C16.2081 15.8363 16.3222 16.1785 16.6644 16.0644C17.0066 15.9503 16.6644 15.4941 16.8925 15.4941C17.1207 15.38 17.5769 15.7222 17.5769 15.7222L18.7176 16.5206L17.3488 17.205C17.2347 17.205 17.1207 17.3191 17.1207 17.5472C17.1207 17.7754 17.8051 17.7754 18.1473 17.7754C18.3754 17.7754 18.4895 18.2316 18.4895 18.2316C18.1473 18.6879 17.1207 18.6879 17.1207 18.6879C17.3488 19.1441 18.6035 19.0301 18.8316 19.1441C19.0598 19.1441 19.0598 19.4864 19.2879 20.0567C19.402 20.627 20.2004 20.8551 20.2004 20.8551C20.4286 21.7677 19.402 21.9958 18.7176 21.9958C14.4972 21.7677 14.9534 16.7488 14.9534 16.7488ZM15.4097 10.3611C15.2956 10.3611 15.2956 10.3611 15.4097 10.3611C15.0675 8.65012 15.7519 6.71099 15.7519 6.71099C15.7519 6.71099 14.0409 8.07979 14.155 10.3611C12.6721 10.3611 10.5048 10.4751 9.25013 11.6158C7.42507 13.0987 7.19695 15.9503 7.08288 16.7488C7.08288 16.7488 7.08288 16.8628 6.96881 16.8628H6.85474C6.39848 16.6347 5.48598 15.7222 6.17037 13.7831C7.0829 11.2736 9.82047 6.25471 15.1816 5.91251C15.1816 5.91251 16.8925 5.79845 17.9191 6.48284C17.9191 6.48284 18.0332 6.48285 18.0332 6.59691V6.71099C17.5769 7.05318 16.0941 8.42196 15.6378 10.4751C15.6378 10.5892 15.5237 10.5892 15.5237 10.5892C15.5237 10.3611 15.4097 10.3611 15.4097 10.3611ZM19.402 17.091C19.402 17.091 19.8583 19.2582 20.8848 20.0567C20.8848 20.0567 20.8848 20.2848 20.5426 20.2848C20.2004 20.2848 19.6301 19.8285 19.402 18.5738C19.1738 17.4332 19.402 17.091 19.402 17.091ZM20.8848 11.6158C19.6301 11.6158 19.0598 10.4751 19.0598 10.4751C19.0598 10.4751 20.5426 11.8439 22.5958 10.7033C22.5958 10.8174 22.1396 11.6158 20.8848 11.6158ZM36.6259 13.4409C36.2837 12.7565 35.8274 12.3002 34.8008 12.0721C33.8883 11.844 33.0899 11.958 32.5195 12.4143L30.6945 11.7299C30.4664 11.2736 30.3523 10.8173 30.1242 10.4751C30.0101 10.1329 29.782 9.90484 29.5538 9.79077C28.2991 9.10638 24.9912 7.39539 23.7365 9.10637C23.7365 9.10637 23.6224 9.22042 23.6224 9.33448L23.1662 9.22044C22.938 8.53605 22.2536 7.9657 21.3411 7.73757C20.7708 7.6235 20.2004 7.62351 19.7442 7.85164C19.402 7.96571 19.402 8.42198 19.7442 8.53604L21.227 9.10637C21.5692 9.22044 21.7974 9.56261 21.5692 9.90481C21.4552 10.247 21.113 10.4752 20.7708 10.247C20.7708 10.247 19.8583 10.0189 19.1739 9.79077C18.8317 9.67671 18.4895 10.0189 18.6035 10.3611C18.8317 11.0455 19.5161 11.7299 20.4286 11.958C21.227 12.1861 22.0255 11.958 22.5958 11.6158L22.938 11.7299C22.938 12.5283 23.6224 13.5549 24.1927 13.8971C25.1053 14.4674 25.9037 14.0112 26.8162 13.4409C26.8162 13.4409 29.2116 15.2659 28.071 20.627C25.1053 20.9692 23.9646 21.9958 22.938 23.1364C22.2536 22.9083 20.2004 22.6802 19.0598 23.0224C19.402 22.6802 19.8582 22.338 20.5426 22.1099C20.8848 21.9958 20.9989 21.7677 20.9989 21.4255C20.9989 21.4255 22.3677 20.9692 22.3677 20.5129C22.3677 20.0567 20.6567 20.0567 19.9723 16.4066C19.8582 15.9503 19.7442 15.6081 19.0598 15.38C19.0598 15.38 18.8317 15.0378 19.1739 14.5815C19.5161 14.1252 19.6301 14.0112 19.516 13.669C19.402 13.3268 18.9457 13.0987 18.9457 13.0987V12.5283C18.9457 12.5283 17.5769 11.5017 17.5769 10.0189C17.5769 8.53603 19.516 6.82507 19.9723 6.3688V6.25473C19.9723 6.25473 19.9723 6.14066 19.8583 6.14066C19.1739 5.68439 17.9191 5 15.866 5C7.88136 5 6.0563 12.1861 4.34531 15.6081C4.34531 15.7222 4.34531 15.7222 4.34531 15.8362C6.0563 19.2582 8.79388 18.916 9.02202 21.8817C9.13608 24.163 8.56573 24.163 8.10947 24.163C7.76727 24.163 7.19694 23.8208 6.96881 23.5927H6.85474C6.85474 23.5927 6.74067 23.7068 6.85474 23.7068C7.08287 24.2771 7.65322 25.6459 9.47827 25.6459C10.3908 25.6459 10.6189 24.8474 10.6189 24.049V21.4255C10.6189 21.1973 10.5048 20.9692 10.3908 20.7411C9.82045 20.1707 8.45169 18.916 8.45169 17.8894C8.45169 17.4331 8.79386 17.205 9.13605 17.205C9.82045 17.205 10.5049 18.2316 11.0752 19.6004C11.1893 19.9426 11.4174 20.1707 11.5314 20.2848H11.6455C11.6455 20.2848 11.6455 20.2848 11.6455 20.1707C11.4174 19.3723 11.4174 18.5738 11.3033 18.2316C11.3033 18.1176 11.1893 17.8894 11.0752 17.7754C10.5049 17.3191 9.13605 15.9503 9.13605 13.8971C9.13605 11.1595 13.5846 11.3877 14.4972 11.3877C14.7253 12.3002 15.2956 12.7565 15.6378 12.8705C14.269 13.3268 11.3033 14.3534 11.3033 16.0644C11.3033 17.8894 14.3831 17.7754 14.3831 17.7754C14.3831 17.7754 13.9268 21.4255 17.3488 22.5661C17.3488 22.5661 16.7785 23.1364 14.9534 23.1364C13.2424 23.1364 12.444 22.338 11.9877 21.4255C11.9877 21.4255 11.9877 21.3114 11.8737 21.3114C11.8737 21.3114 11.7596 21.3114 11.7596 21.4255C11.6455 21.6536 11.6455 22.1098 11.8737 22.5661C12.3299 23.3646 13.0143 23.8208 13.0143 24.8474C13.0143 25.6459 12.3299 26.1022 11.9877 26.2162C12.6721 26.3303 15.7519 27.1287 17.8051 28.1553C18.0332 28.0413 19.8582 26.9006 19.9723 25.3037C19.9723 25.3037 20.0864 24.2771 18.6035 24.163C18.6035 24.163 19.2879 23.9349 20.4286 23.9349C21.5692 23.9349 22.8239 24.8474 20.5426 29.6382C20.5426 29.6382 20.5426 29.6382 20.5426 29.7523C20.8848 29.9804 23.5083 31.6914 25.2193 33.2883H25.3334C25.3334 33.2883 25.4475 33.2883 25.4475 33.1742C25.6756 32.9461 26.1319 32.1476 26.36 30.2085C26.36 29.9804 26.4741 29.8663 26.7022 29.8663C27.7288 29.5241 31.1507 28.4975 32.6336 26.4443C34.3446 24.049 35.029 23.7068 35.029 23.7068C35.029 23.7068 36.1696 23.0224 35.7134 21.3114C35.4853 20.3989 34.1165 18.1175 32.7477 15.7222C33.0899 15.9503 33.4321 16.0644 33.7743 16.1784C34.5727 16.4066 35.3712 16.2925 35.9415 15.9503C36.0556 15.8362 36.1696 15.7222 36.1696 15.6081C36.1696 15.494 36.0556 15.38 35.9415 15.2659L34.4587 14.6956C34.1165 14.5815 33.8883 14.1253 34.0024 13.7831C34.1165 13.4409 34.5727 13.2127 34.9149 13.3268L36.2837 13.7831C36.3978 13.7831 36.5118 13.7831 36.6259 13.669C36.74 13.5549 36.6259 13.669 36.6259 13.4409Z" fill="black"/>
<path d="M16.4323 17.7724C16.4323 17.7724 15.8619 17.8864 15.976 18.799C16.09 19.5974 16.7744 19.5974 16.7744 19.5974C16.2041 18.913 16.4323 17.7724 16.4323 17.7724Z" fill="black"/>
<path d="M6.51072 29.0675C8.5639 30.2082 13.1265 31.5769 14.0391 33.9723C14.0391 33.9723 14.3812 34.5426 12.5562 34.5426C11.1874 34.5426 10.8452 34.2005 9.93269 33.0598C8.5639 31.4629 5.71224 30.4363 5.71224 29.1816C5.59818 29.2956 5.71226 28.6112 6.51072 29.0675Z" fill="black"/>
</svg>
