<svg width="379" height="475" viewBox="0 0 379 475" fill="none" xmlns="http://www.w3.org/2000/svg">
<rect width="379" height="475" rx="8" fill="#EBEEF1"/>
<circle cx="4" cy="124" r="4" fill="#1E4521"/>
<path d="M7 124H379" stroke="#1B8823"/>
<path d="M0 178C0 173.582 3.58172 170 8 170H362.024C366.442 170 370.024 173.582 370.024 178V234C370.024 238.418 366.442 242 362.024 242H8.00001C3.58174 242 0 238.418 0 234V178Z" fill="white"/>
<path d="M0 171.953C0 170.874 0.874223 170 1.95263 170C3.03104 170 3.90526 170.874 3.90526 171.953V240.047C3.90526 241.126 3.03104 242 1.95263 242C0.874223 242 0 241.126 0 240.047V171.953Z" fill="#418145"/>
<rect x="9.76315" y="176" width="360.261" height="60" rx="8" fill="white"/>
<path d="M74.7032 189.23H72.7832V200H74.7032V196.745L76.0082 195.305L79.4132 200H81.6782L77.2532 193.895L81.4382 189.23H79.1732L74.7032 194.33V189.23ZM88.5533 198.11V194.21C88.5533 192.785 87.4433 191.975 85.5983 191.975C83.7833 191.975 82.4033 192.785 82.3433 194.6H84.0983C84.1433 193.91 84.5483 193.535 85.4933 193.535C86.3033 193.535 86.7983 193.79 86.7983 194.495V194.885L84.6233 195.335C83.1083 195.65 81.9833 196.31 81.9833 197.81C81.9833 199.22 83.1383 200.135 84.6383 200.135C85.5833 200.135 86.3633 199.865 86.8733 199.37C86.8733 199.595 86.8883 199.805 86.9183 200H88.6733C88.5833 199.43 88.5533 198.755 88.5533 198.11ZM86.7983 197.225C86.7983 198.185 85.8683 198.695 84.9083 198.695C84.2183 198.695 83.7683 198.35 83.7683 197.735C83.7683 197.03 84.3383 196.79 85.1033 196.625L86.7983 196.265V197.225ZM94.8588 192.11C94.7238 192.095 94.5588 192.08 94.3488 192.08C93.3438 192.08 92.5338 192.56 92.1888 193.295V192.125H90.3888V200H92.1888V195.86C92.1888 194.6 93.0588 193.865 94.1988 193.865C94.4538 193.865 94.6338 193.88 94.8588 193.91V192.11ZM97.9017 189.23H96.1017V200H97.9017V189.23ZM105.853 198.11V194.21C105.853 192.785 104.743 191.975 102.898 191.975C101.083 191.975 99.7031 192.785 99.6431 194.6H101.398C101.443 193.91 101.848 193.535 102.793 193.535C103.603 193.535 104.098 193.79 104.098 194.495V194.885L101.923 195.335C100.408 195.65 99.2831 196.31 99.2831 197.81C99.2831 199.22 100.438 200.135 101.938 200.135C102.883 200.135 103.663 199.865 104.173 199.37C104.173 199.595 104.188 199.805 104.218 200H105.973C105.883 199.43 105.853 198.755 105.853 198.11ZM104.098 197.225C104.098 198.185 103.168 198.695 102.208 198.695C101.518 198.695 101.068 198.35 101.068 197.735C101.068 197.03 101.638 196.79 102.403 196.625L104.098 196.265V197.225ZM112.744 200V195.515H117.184V193.835H112.744V190.91H118.039V189.23H110.854V200H112.744ZM120.944 189.23H119.144V200H120.944V189.23ZM129.93 196.07C129.93 193.625 128.355 191.975 126.135 191.975C123.915 191.975 122.34 193.625 122.34 196.07C122.34 198.515 123.915 200.165 126.135 200.165C128.355 200.165 129.93 198.515 129.93 196.07ZM124.155 196.07C124.155 194.465 124.92 193.49 126.135 193.49C127.35 193.49 128.115 194.465 128.115 196.07C128.115 197.675 127.35 198.65 126.135 198.65C124.92 198.65 124.155 197.675 124.155 196.07ZM135.801 192.11C135.666 192.095 135.501 192.08 135.291 192.08C134.286 192.08 133.476 192.56 133.131 193.295V192.125H131.331V200H133.131V195.86C133.131 194.6 134.001 193.865 135.141 193.865C135.396 193.865 135.576 193.88 135.801 193.91V192.11ZM139.993 200.165C141.568 200.165 142.813 199.34 143.368 197.96L141.823 197.375C141.583 198.185 140.878 198.635 139.993 198.635C138.838 198.635 138.028 197.81 137.893 196.46H143.413V195.86C143.413 193.7 142.198 191.975 139.918 191.975C137.728 191.975 136.168 193.76 136.168 196.07C136.168 198.5 137.743 200.165 139.993 200.165ZM139.903 193.49C141.043 193.49 141.583 194.24 141.598 195.11H137.983C138.253 194.045 138.973 193.49 139.903 193.49ZM143.939 198.5C144.644 199.58 146.099 200.165 147.554 200.165C149.339 200.165 150.794 199.145 150.794 197.555C150.794 195.755 149.114 195.47 147.779 195.185C146.789 194.975 146.219 194.87 146.219 194.3C146.219 193.775 146.699 193.445 147.434 193.445C148.304 193.445 149.054 193.85 149.504 194.555L150.719 193.46C150.149 192.59 148.919 191.975 147.539 191.975C145.724 191.975 144.464 193.025 144.464 194.465C144.464 196.145 145.889 196.46 147.134 196.715C148.379 196.97 149.039 197.045 149.039 197.72C149.039 198.425 148.334 198.695 147.569 198.695C146.654 198.695 145.754 198.185 145.289 197.42L143.939 198.5Z" fill="#27282D"/>
<path d="M72.771 219H73.7905V216.604L74.3823 216.029L76.7495 219H78.0327L75.0971 215.338L77.851 212.684H76.6147L73.8842 215.443H73.7905V210.176H72.771V219ZM79.6499 219H80.6694V213.527H82.1049V212.684H80.6694V212.01C80.6694 211.318 80.9624 210.961 81.6889 210.961C81.8706 210.961 82.0405 210.967 82.1635 210.99V210.176C81.9526 210.135 81.7299 210.117 81.4839 210.117C80.2827 210.117 79.6499 210.721 79.6499 211.98V212.684H78.601V213.527H79.6499V219ZM83.6342 219H84.6538V210.176H83.6342V219ZM89.2065 219.111C91.0053 219.111 92.1186 217.869 92.1186 215.848V215.836C92.1186 213.809 91.0053 212.572 89.2065 212.572C87.4077 212.572 86.2944 213.809 86.2944 215.836V215.848C86.2944 217.869 87.4077 219.111 89.2065 219.111ZM89.2065 218.209C88.0112 218.209 87.3374 217.336 87.3374 215.848V215.836C87.3374 214.342 88.0112 213.475 89.2065 213.475C90.4018 213.475 91.0757 214.342 91.0757 215.836V215.848C91.0757 217.336 90.4018 218.209 89.2065 218.209ZM93.7007 219H94.7202V215.086C94.7202 214.16 95.4116 213.545 96.3842 213.545C96.6069 213.545 96.8003 213.568 97.0112 213.604V212.613C96.9116 212.596 96.6948 212.572 96.5014 212.572C95.646 212.572 95.0542 212.959 94.8139 213.621H94.7202V212.684H93.7007V219ZM100.673 219.111C102.162 219.111 103.064 218.268 103.281 217.412L103.292 217.365H102.273L102.249 217.418C102.08 217.799 101.552 218.203 100.697 218.203C99.5717 218.203 98.851 217.441 98.8217 216.135H103.369V215.736C103.369 213.85 102.326 212.572 100.609 212.572C98.8921 212.572 97.7788 213.908 97.7788 215.859V215.865C97.7788 217.846 98.8686 219.111 100.673 219.111ZM100.603 213.48C101.535 213.48 102.226 214.072 102.332 215.32H98.8393C98.9507 214.119 99.6655 213.48 100.603 213.48ZM107.119 219.111C108.554 219.111 109.65 218.332 109.65 217.207V217.195C109.65 216.293 109.076 215.777 107.886 215.49L106.914 215.256C106.169 215.074 105.853 214.805 105.853 214.377V214.365C105.853 213.809 106.404 213.422 107.154 213.422C107.915 213.422 108.408 213.768 108.542 214.266H109.544C109.404 213.234 108.484 212.572 107.16 212.572C105.818 212.572 104.81 213.363 104.81 214.412V214.418C104.81 215.326 105.343 215.842 106.527 216.123L107.505 216.357C108.285 216.545 108.607 216.844 108.607 217.271V217.283C108.607 217.857 108.003 218.262 107.154 218.262C106.345 218.262 105.841 217.916 105.671 217.389H104.628C104.746 218.432 105.712 219.111 107.119 219.111ZM116.06 220.371C116.798 220.371 117.507 220.266 118.035 220.084V219.346C117.665 219.516 116.874 219.627 116.072 219.627C113.564 219.627 111.947 218.016 111.947 215.52V215.508C111.947 213.076 113.593 211.33 115.884 211.33C118.228 211.33 119.833 212.777 119.833 214.887V214.898C119.833 216.334 119.359 217.266 118.621 217.266C118.199 217.266 117.958 217.025 117.958 216.615V213.176H117.074V213.891H116.98C116.751 213.381 116.224 213.064 115.609 213.064C114.408 213.064 113.57 214.061 113.57 215.479V215.49C113.57 216.973 114.39 217.975 115.609 217.975C116.294 217.975 116.822 217.641 117.074 217.043H117.167L117.173 217.078C117.267 217.646 117.783 218.027 118.457 218.027C119.804 218.027 120.66 216.814 120.66 214.91V214.898C120.66 212.361 118.732 210.592 115.96 210.592C113.089 210.592 111.121 212.578 111.121 215.473V215.484C111.121 218.473 113.037 220.371 116.06 220.371ZM115.744 217.148C114.976 217.148 114.507 216.527 114.507 215.514V215.502C114.507 214.482 114.97 213.873 115.755 213.873C116.552 213.873 117.062 214.506 117.062 215.502V215.514C117.062 216.51 116.546 217.148 115.744 217.148ZM124.826 219.111C126.314 219.111 127.216 218.268 127.433 217.412L127.445 217.365H126.425L126.402 217.418C126.232 217.799 125.705 218.203 124.849 218.203C123.724 218.203 123.003 217.441 122.974 216.135H127.521V215.736C127.521 213.85 126.478 212.572 124.761 212.572C123.044 212.572 121.931 213.908 121.931 215.859V215.865C121.931 217.846 123.021 219.111 124.826 219.111ZM124.755 213.48C125.687 213.48 126.378 214.072 126.484 215.32H122.992C123.103 214.119 123.818 213.48 124.755 213.48ZM128.365 219H129.507L131.007 216.615H131.101L132.595 219H133.79L131.617 215.801L133.761 212.684H132.619L131.136 215.033H131.042L129.542 212.684H128.341L130.527 215.842L128.365 219ZM136.896 219.111C137.746 219.111 138.408 218.742 138.806 218.068H138.9V219H139.919V214.676C139.919 213.363 139.058 212.572 137.517 212.572C136.169 212.572 135.208 213.24 135.044 214.23L135.039 214.266H136.058L136.064 214.248C136.228 213.756 136.726 213.475 137.482 213.475C138.425 213.475 138.9 213.896 138.9 214.676V215.25L137.089 215.361C135.619 215.449 134.787 216.1 134.787 217.225V217.236C134.787 218.385 135.695 219.111 136.896 219.111ZM135.83 217.213V217.201C135.83 216.574 136.251 216.234 137.212 216.176L138.9 216.07V216.645C138.9 217.547 138.144 218.227 137.107 218.227C136.374 218.227 135.83 217.852 135.83 217.213ZM141.783 219H142.802V215.086C142.802 214.195 143.429 213.475 144.255 213.475C145.052 213.475 145.568 213.961 145.568 214.711V219H146.587V214.939C146.587 214.137 147.167 213.475 148.046 213.475C148.937 213.475 149.365 213.938 149.365 214.869V219H150.384V214.635C150.384 213.311 149.664 212.572 148.374 212.572C147.501 212.572 146.781 213.012 146.441 213.68H146.347C146.054 213.023 145.457 212.572 144.601 212.572C143.775 212.572 143.177 212.965 142.896 213.645H142.802V212.684H141.783V219ZM152.224 221.109H153.244V218.004H153.337C153.683 218.678 154.439 219.111 155.306 219.111C156.912 219.111 157.955 217.828 157.955 215.848V215.836C157.955 213.867 156.906 212.572 155.306 212.572C154.427 212.572 153.724 212.988 153.337 213.691H153.244V212.684H152.224V221.109ZM155.072 218.209C153.923 218.209 153.22 217.307 153.22 215.848V215.836C153.22 214.377 153.923 213.475 155.072 213.475C156.226 213.475 156.912 214.365 156.912 215.836V215.848C156.912 217.318 156.226 218.209 155.072 218.209ZM159.607 219H160.626V210.176H159.607V219ZM165.162 219.111C166.65 219.111 167.552 218.268 167.769 217.412L167.781 217.365H166.761L166.738 217.418C166.568 217.799 166.04 218.203 165.185 218.203C164.06 218.203 163.339 217.441 163.31 216.135H167.857V215.736C167.857 213.85 166.814 212.572 165.097 212.572C163.38 212.572 162.267 213.908 162.267 215.859V215.865C162.267 217.846 163.357 219.111 165.162 219.111ZM165.091 213.48C166.023 213.48 166.714 214.072 166.82 215.32H163.328C163.439 214.119 164.154 213.48 165.091 213.48ZM170.271 219.059C170.693 219.059 171.033 218.713 171.033 218.297C171.033 217.875 170.693 217.535 170.271 217.535C169.855 217.535 169.509 217.875 169.509 218.297C169.509 218.713 169.855 219.059 170.271 219.059ZM175.351 219.111C176.869 219.111 177.718 218.297 177.976 217.154L177.988 217.09L176.98 217.096L176.968 217.131C176.734 217.834 176.195 218.209 175.345 218.209C174.22 218.209 173.494 217.277 173.494 215.824V215.812C173.494 214.389 174.208 213.475 175.345 213.475C176.253 213.475 176.816 213.979 176.974 214.6L176.98 214.617H177.994L177.988 214.582C177.8 213.457 176.88 212.572 175.345 212.572C173.576 212.572 172.451 213.85 172.451 215.812V215.824C172.451 217.828 173.582 219.111 175.351 219.111ZM182.078 219.111C183.876 219.111 184.99 217.869 184.99 215.848V215.836C184.99 213.809 183.876 212.572 182.078 212.572C180.279 212.572 179.165 213.809 179.165 215.836V215.848C179.165 217.869 180.279 219.111 182.078 219.111ZM182.078 218.209C180.882 218.209 180.208 217.336 180.208 215.848V215.836C180.208 214.342 180.882 213.475 182.078 213.475C183.273 213.475 183.947 214.342 183.947 215.836V215.848C183.947 217.336 183.273 218.209 182.078 218.209ZM186.572 219H187.591V215.086C187.591 214.195 188.218 213.475 189.044 213.475C189.841 213.475 190.357 213.961 190.357 214.711V219H191.376V214.939C191.376 214.137 191.957 213.475 192.835 213.475C193.726 213.475 194.154 213.938 194.154 214.869V219H195.173V214.635C195.173 213.311 194.453 212.572 193.164 212.572C192.29 212.572 191.57 213.012 191.23 213.68H191.136C190.843 213.023 190.246 212.572 189.39 212.572C188.564 212.572 187.966 212.965 187.685 213.645H187.591V212.684H186.572V219Z" fill="#6A7383"/>
<path d="M22.3992 189.878C22.3012 191.068 21.7832 191.502 20.5232 191.614L19.5432 191.698V193.028H21.9652V200H23.7572V189.878H22.3992ZM25.3466 193.546H27.3766V191.516H25.3466V193.546ZM25.3466 198.432H27.3766V196.402H25.3466V198.432ZM32.0192 200.154C34.2172 200.154 35.5752 198.768 35.5752 197.158C35.5752 195.842 34.8052 195.086 33.8392 194.778C34.6652 194.484 35.2672 193.63 35.2672 192.608C35.2672 190.97 34.0772 189.794 32.0612 189.794C30.0452 189.794 28.7152 191.138 28.4492 192.832L30.0592 193.126C30.2552 192.034 30.9552 191.278 32.0052 191.278C32.9992 191.278 33.5872 191.824 33.5872 192.706C33.5872 193.602 32.9292 194.064 31.8652 194.064H30.8852V195.576H31.8792C33.0412 195.576 33.8532 196.024 33.8532 197.046C33.8532 198.082 33.0832 198.67 31.9912 198.67C30.9272 198.67 30.0732 197.97 29.9052 196.752L28.1832 197.074C28.4772 199.09 30.0452 200.154 32.0192 200.154ZM36.3232 194.974C36.3232 198.04 37.7792 200.154 40.2712 200.154C42.7632 200.154 44.2192 198.04 44.2192 194.974C44.2192 191.908 42.7632 189.794 40.2712 189.794C37.7792 189.794 36.3232 191.908 36.3232 194.974ZM38.1152 194.974C38.1152 192.86 38.7872 191.348 40.2712 191.348C41.7552 191.348 42.4272 192.86 42.4272 194.974C42.4272 197.088 41.7552 198.6 40.2712 198.6C38.7872 198.6 38.1152 197.088 38.1152 194.974Z" fill="#27282D"/>
<path d="M24.5072 214.108H26.7332C28.9732 214.108 30.3732 213.03 30.3732 211.028C30.3732 208.998 28.9732 207.948 26.7332 207.948H22.7152V218H24.5072V214.108ZM24.5072 212.568V209.488H26.6352C27.9232 209.488 28.6092 210.034 28.6092 211.028C28.6092 212.008 27.9232 212.568 26.6352 212.568H24.5072ZM37.3149 218L39.9469 210.23V218H41.6129V207.948H39.2049L36.6149 215.648L34.0249 207.948H31.5609V218H33.2269V210.23L35.8589 218H37.3149Z" fill="#27282D"/>
<path d="M0.976318 384C0.976318 379.582 4.55804 376 8.97632 376H363C367.418 376 371 379.582 371 384V440C371 444.418 367.418 448 363 448H8.97633C4.55805 448 0.976318 444.418 0.976318 440V384Z" fill="white"/>
<path d="M0.976318 377.953C0.976318 376.874 1.85054 376 2.92895 376C4.00736 376 4.88158 376.874 4.88158 377.953V446.047C4.88158 447.126 4.00736 448 2.92895 448C1.85054 448 0.976318 447.126 0.976318 446.047V377.953Z" fill="#418145"/>
<rect x="10.7395" y="382" width="360.261" height="60" rx="8" fill="white"/>
<path d="M73.0695 405.985C73.5795 406.075 73.9695 406.105 74.4945 406.105C76.6845 406.105 77.9295 405.085 77.9295 402.94V395.23H76.0095V402.79C76.0095 403.99 75.4245 404.395 74.2695 404.395C73.8045 404.395 73.5795 404.365 73.0695 404.275V405.985ZM85.7943 404.11V400.21C85.7943 398.785 84.6843 397.975 82.8393 397.975C81.0243 397.975 79.6443 398.785 79.5843 400.6H81.3393C81.3843 399.91 81.7893 399.535 82.7343 399.535C83.5443 399.535 84.0393 399.79 84.0393 400.495V400.885L81.8643 401.335C80.3493 401.65 79.2243 402.31 79.2243 403.81C79.2243 405.22 80.3793 406.135 81.8793 406.135C82.8243 406.135 83.6043 405.865 84.1143 405.37C84.1143 405.595 84.1293 405.805 84.1593 406H85.9143C85.8243 405.43 85.7943 404.755 85.7943 404.11ZM84.0393 403.225C84.0393 404.185 83.1093 404.695 82.1493 404.695C81.4593 404.695 81.0093 404.35 81.0093 403.735C81.0093 403.03 81.5793 402.79 82.3443 402.625L84.0393 402.265V403.225ZM89.4298 401.38C89.4298 400.255 90.2248 399.655 90.9898 399.655C91.9498 399.655 92.3098 400.36 92.3098 401.335V406H94.1098V401.38C94.1098 400.255 94.9048 399.655 95.6698 399.655C96.6298 399.655 96.9898 400.36 96.9898 401.335V406H98.7898V400.81C98.7898 399.115 97.7398 397.975 96.1198 397.975C94.9048 397.975 94.1548 398.56 93.6748 399.07C93.2398 398.395 92.5348 397.975 91.5898 397.975C90.5398 397.975 89.8648 398.44 89.4298 398.965V398.125H87.6298V406H89.4298V401.38ZM103.953 406.165C105.528 406.165 106.773 405.34 107.328 403.96L105.783 403.375C105.543 404.185 104.838 404.635 103.953 404.635C102.798 404.635 101.988 403.81 101.853 402.46H107.373V401.86C107.373 399.7 106.158 397.975 103.878 397.975C101.688 397.975 100.128 399.76 100.128 402.07C100.128 404.5 101.703 406.165 103.953 406.165ZM103.863 399.49C105.003 399.49 105.543 400.24 105.558 401.11H101.943C102.213 400.045 102.933 399.49 103.863 399.49ZM107.899 404.5C108.604 405.58 110.059 406.165 111.514 406.165C113.299 406.165 114.754 405.145 114.754 403.555C114.754 401.755 113.074 401.47 111.739 401.185C110.749 400.975 110.179 400.87 110.179 400.3C110.179 399.775 110.659 399.445 111.394 399.445C112.264 399.445 113.014 399.85 113.464 400.555L114.679 399.46C114.109 398.59 112.879 397.975 111.499 397.975C109.684 397.975 108.424 399.025 108.424 400.465C108.424 402.145 109.849 402.46 111.094 402.715C112.339 402.97 112.999 403.045 112.999 403.72C112.999 404.425 112.294 404.695 111.529 404.695C110.614 404.695 109.714 404.185 109.249 403.42L107.899 404.5ZM124.446 395.23L122.451 403.135L120.411 395.23H118.431L121.356 406H123.246L125.271 398.41L127.311 406H129.201L132.111 395.23H130.191L128.151 403.135L126.141 395.23H124.446ZM133.098 397.075H134.958V395.23H133.098V397.075ZM134.928 398.125H133.128V406H134.928V398.125ZM138.619 395.23H136.819V406H138.619V395.23ZM139.686 404.5C140.391 405.58 141.846 406.165 143.301 406.165C145.086 406.165 146.541 405.145 146.541 403.555C146.541 401.755 144.861 401.47 143.526 401.185C142.536 400.975 141.966 400.87 141.966 400.3C141.966 399.775 142.446 399.445 143.181 399.445C144.051 399.445 144.801 399.85 145.251 400.555L146.466 399.46C145.896 398.59 144.666 397.975 143.286 397.975C141.471 397.975 140.211 399.025 140.211 400.465C140.211 402.145 141.636 402.46 142.881 402.715C144.126 402.97 144.786 403.045 144.786 403.72C144.786 404.425 144.081 404.695 143.316 404.695C142.401 404.695 141.501 404.185 141.036 403.42L139.686 404.5ZM155.018 402.07C155.018 399.625 153.443 397.975 151.223 397.975C149.003 397.975 147.428 399.625 147.428 402.07C147.428 404.515 149.003 406.165 151.223 406.165C153.443 406.165 155.018 404.515 155.018 402.07ZM149.243 402.07C149.243 400.465 150.008 399.49 151.223 399.49C152.438 399.49 153.203 400.465 153.203 402.07C153.203 403.675 152.438 404.65 151.223 404.65C150.008 404.65 149.243 403.675 149.243 402.07ZM156.419 406H158.219V401.38C158.219 400.255 159.044 399.655 159.854 399.655C160.844 399.655 161.234 400.36 161.234 401.335V406H163.034V400.81C163.034 399.115 162.044 397.975 160.394 397.975C159.374 397.975 158.669 398.44 158.219 398.965V398.125H156.419V406Z" fill="#27282D"/>
<path d="M74.216 417.465C74.6028 417.465 74.9192 417.148 74.9192 416.762C74.9192 416.375 74.6028 416.059 74.216 416.059C73.8293 416.059 73.5129 416.375 73.5129 416.762C73.5129 417.148 73.8293 417.465 74.216 417.465ZM72.7863 427.168C74.1106 427.168 74.7258 426.611 74.7258 425.311V418.684H73.7063V425.328C73.7063 426.025 73.4485 426.266 72.7629 426.266H72.6106V427.168H72.7863ZM77.8723 425H78.8918L80.2981 420.113H80.3918L81.8039 425H82.8293L84.5988 418.684H83.5852L82.343 423.734H82.2492L80.8371 418.684H79.8703L78.4582 423.734H78.3645L77.1223 418.684H76.1028L77.8723 425ZM86.4856 417.465C86.8723 417.465 87.1887 417.148 87.1887 416.762C87.1887 416.375 86.8723 416.059 86.4856 416.059C86.0988 416.059 85.7824 416.375 85.7824 416.762C85.7824 417.148 86.0988 417.465 86.4856 417.465ZM85.9699 425H86.9895V418.684H85.9699V425ZM88.9699 425H89.9895V416.176H88.9699V425ZM94.1145 425.111C95.55 425.111 96.6457 424.332 96.6457 423.207V423.195C96.6457 422.293 96.0715 421.777 94.882 421.49L93.9094 421.256C93.1653 421.074 92.8488 420.805 92.8488 420.377V420.365C92.8488 419.809 93.3996 419.422 94.1496 419.422C94.9113 419.422 95.4035 419.768 95.5383 420.266H96.5403C96.3996 419.234 95.4797 418.572 94.1555 418.572C92.8137 418.572 91.8059 419.363 91.8059 420.412V420.418C91.8059 421.326 92.3391 421.842 93.5227 422.123L94.5012 422.357C95.2805 422.545 95.6028 422.844 95.6028 423.271V423.283C95.6028 423.857 94.9992 424.262 94.1496 424.262C93.341 424.262 92.8371 423.916 92.6672 423.389H91.6242C91.7414 424.432 92.7082 425.111 94.1145 425.111ZM100.823 425.111C102.622 425.111 103.736 423.869 103.736 421.848V421.836C103.736 419.809 102.622 418.572 100.823 418.572C99.0246 418.572 97.9113 419.809 97.9113 421.836V421.848C97.9113 423.869 99.0246 425.111 100.823 425.111ZM100.823 424.209C99.6281 424.209 98.9543 423.336 98.9543 421.848V421.836C98.9543 420.342 99.6281 419.475 100.823 419.475C102.019 419.475 102.693 420.342 102.693 421.836V421.848C102.693 423.336 102.019 424.209 100.823 424.209ZM105.318 425H106.337V421.262C106.337 420.154 106.976 419.475 107.984 419.475C108.991 419.475 109.46 420.02 109.46 421.156V425H110.48V420.91C110.48 419.41 109.689 418.572 108.271 418.572C107.339 418.572 106.747 418.965 106.431 419.633H106.337V418.684H105.318V425ZM117.154 426.371C117.892 426.371 118.601 426.266 119.128 426.084V425.346C118.759 425.516 117.968 425.627 117.165 425.627C114.657 425.627 113.04 424.016 113.04 421.52V421.508C113.04 419.076 114.687 417.33 116.978 417.33C119.322 417.33 120.927 418.777 120.927 420.887V420.898C120.927 422.334 120.452 423.266 119.714 423.266C119.292 423.266 119.052 423.025 119.052 422.615V419.176H118.167V419.891H118.073C117.845 419.381 117.318 419.064 116.702 419.064C115.501 419.064 114.663 420.061 114.663 421.479V421.49C114.663 422.973 115.484 423.975 116.702 423.975C117.388 423.975 117.915 423.641 118.167 423.043H118.261L118.267 423.078C118.361 423.646 118.876 424.027 119.55 424.027C120.898 424.027 121.753 422.814 121.753 420.91V420.898C121.753 418.361 119.825 416.592 117.054 416.592C114.183 416.592 112.214 418.578 112.214 421.473V421.484C112.214 424.473 114.13 426.371 117.154 426.371ZM116.837 423.148C116.07 423.148 115.601 422.527 115.601 421.514V421.502C115.601 420.482 116.064 419.873 116.849 419.873C117.646 419.873 118.155 420.506 118.155 421.502V421.514C118.155 422.51 117.64 423.148 116.837 423.148ZM125.919 425.111C127.407 425.111 128.31 424.268 128.527 423.412L128.538 423.365H127.519L127.495 423.418C127.325 423.799 126.798 424.203 125.943 424.203C124.818 424.203 124.097 423.441 124.068 422.135H128.614V421.736C128.614 419.85 127.572 418.572 125.855 418.572C124.138 418.572 123.025 419.908 123.025 421.859V421.865C123.025 423.846 124.114 425.111 125.919 425.111ZM125.849 419.48C126.78 419.48 127.472 420.072 127.577 421.32H124.085C124.197 420.119 124.911 419.48 125.849 419.48ZM129.458 425H130.601L132.101 422.615H132.195L133.689 425H134.884L132.71 421.801L134.855 418.684H133.712L132.23 421.033H132.136L130.636 418.684H129.435L131.62 421.842L129.458 425ZM137.989 425.111C138.839 425.111 139.501 424.742 139.9 424.068H139.993V425H141.013V420.676C141.013 419.363 140.152 418.572 138.611 418.572C137.263 418.572 136.302 419.24 136.138 420.23L136.132 420.266H137.152L137.157 420.248C137.322 419.756 137.82 419.475 138.575 419.475C139.519 419.475 139.993 419.896 139.993 420.676V421.25L138.183 421.361C136.712 421.449 135.88 422.1 135.88 423.225V423.236C135.88 424.385 136.788 425.111 137.989 425.111ZM136.923 423.213V423.201C136.923 422.574 137.345 422.234 138.306 422.176L139.993 422.07V422.645C139.993 423.547 139.238 424.227 138.2 424.227C137.468 424.227 136.923 423.852 136.923 423.213ZM142.876 425H143.896V421.086C143.896 420.195 144.523 419.475 145.349 419.475C146.146 419.475 146.661 419.961 146.661 420.711V425H147.681V420.939C147.681 420.137 148.261 419.475 149.14 419.475C150.03 419.475 150.458 419.938 150.458 420.869V425H151.478V420.635C151.478 419.311 150.757 418.572 149.468 418.572C148.595 418.572 147.874 419.012 147.534 419.68H147.441C147.148 419.023 146.55 418.572 145.695 418.572C144.868 418.572 144.271 418.965 143.989 419.645H143.896V418.684H142.876V425ZM153.318 427.109H154.337V424.004H154.431C154.777 424.678 155.532 425.111 156.4 425.111C158.005 425.111 159.048 423.828 159.048 421.848V421.836C159.048 419.867 157.999 418.572 156.4 418.572C155.521 418.572 154.818 418.988 154.431 419.691H154.337V418.684H153.318V427.109ZM156.165 424.209C155.017 424.209 154.314 423.307 154.314 421.848V421.836C154.314 420.377 155.017 419.475 156.165 419.475C157.32 419.475 158.005 420.365 158.005 421.836V421.848C158.005 423.318 157.32 424.209 156.165 424.209ZM160.7 425H161.72V416.176H160.7V425ZM166.255 425.111C167.743 425.111 168.646 424.268 168.863 423.412L168.874 423.365H167.855L167.831 423.418C167.661 423.799 167.134 424.203 166.279 424.203C165.154 424.203 164.433 423.441 164.404 422.135H168.95V421.736C168.95 419.85 167.907 418.572 166.191 418.572C164.474 418.572 163.361 419.908 163.361 421.859V421.865C163.361 423.846 164.45 425.111 166.255 425.111ZM166.185 419.48C167.116 419.48 167.808 420.072 167.913 421.32H164.421C164.532 420.119 165.247 419.48 166.185 419.48ZM171.364 425.059C171.786 425.059 172.126 424.713 172.126 424.297C172.126 423.875 171.786 423.535 171.364 423.535C170.948 423.535 170.603 423.875 170.603 424.297C170.603 424.713 170.948 425.059 171.364 425.059ZM176.445 425.111C177.962 425.111 178.812 424.297 179.07 423.154L179.081 423.09L178.073 423.096L178.062 423.131C177.827 423.834 177.288 424.209 176.439 424.209C175.314 424.209 174.587 423.277 174.587 421.824V421.812C174.587 420.389 175.302 419.475 176.439 419.475C177.347 419.475 177.909 419.979 178.068 420.6L178.073 420.617H179.087L179.081 420.582C178.894 419.457 177.974 418.572 176.439 418.572C174.669 418.572 173.544 419.85 173.544 421.812V421.824C173.544 423.828 174.675 425.111 176.445 425.111ZM183.171 425.111C184.97 425.111 186.083 423.869 186.083 421.848V421.836C186.083 419.809 184.97 418.572 183.171 418.572C181.372 418.572 180.259 419.809 180.259 421.836V421.848C180.259 423.869 181.372 425.111 183.171 425.111ZM183.171 424.209C181.976 424.209 181.302 423.336 181.302 421.848V421.836C181.302 420.342 181.976 419.475 183.171 419.475C184.366 419.475 185.04 420.342 185.04 421.836V421.848C185.04 423.336 184.366 424.209 183.171 424.209ZM187.665 425H188.685V421.086C188.685 420.195 189.312 419.475 190.138 419.475C190.935 419.475 191.45 419.961 191.45 420.711V425H192.47V420.939C192.47 420.137 193.05 419.475 193.929 419.475C194.82 419.475 195.247 419.938 195.247 420.869V425H196.267V420.635C196.267 419.311 195.546 418.572 194.257 418.572C193.384 418.572 192.663 419.012 192.323 419.68H192.23C191.937 419.023 191.339 418.572 190.484 418.572C189.657 418.572 189.06 418.965 188.779 419.645H188.685V418.684H187.665V425Z" fill="#6A7383"/>
<path d="M0.976318 308C0.976318 303.582 4.55804 300 8.97632 300H363C367.418 300 371 303.582 371 308V364C371 368.418 367.418 372 363 372H8.97633C4.55805 372 0.976318 368.418 0.976318 364V308Z" fill="white"/>
<path d="M0.976318 301.953C0.976318 300.874 1.85054 300 2.92895 300C4.00736 300 4.88158 300.874 4.88158 301.953V370.047C4.88158 371.126 4.00736 372 2.92895 372C1.85054 372 0.976318 371.126 0.976318 370.047V301.953Z" fill="#418145"/>
<rect x="10.7395" y="306" width="360.261" height="60" rx="8" fill="white"/>
<path d="M79.9245 330L82.7445 321.675V330H84.5295V319.23H81.9495L79.1745 327.48L76.3995 319.23H73.7595V330H75.5445V321.675L78.3645 330H79.9245ZM86.4572 321.075H88.3172V319.23H86.4572V321.075ZM88.2872 322.125H86.4872V330H88.2872V322.125ZM91.4836 326.07C91.4836 324.465 92.3236 323.52 93.5536 323.52C94.5136 323.52 95.0986 324.165 95.3236 325.02L96.8386 324.195C96.4186 322.935 95.2486 321.975 93.5536 321.975C91.3036 321.975 89.6836 323.64 89.6836 326.07C89.6836 328.5 91.3036 330.165 93.5536 330.165C95.2636 330.165 96.4636 329.16 96.8686 327.885L95.3236 327.105C95.0986 327.975 94.5136 328.605 93.5536 328.605C92.3236 328.605 91.4836 327.675 91.4836 326.07ZM97.9569 330H99.7569V325.38C99.7569 324.255 100.582 323.655 101.392 323.655C102.382 323.655 102.772 324.36 102.772 325.335V330H104.572V324.81C104.572 323.115 103.582 321.975 101.932 321.975C100.912 321.975 100.207 322.44 99.7569 322.965V319.23H97.9569V330ZM112.469 328.11V324.21C112.469 322.785 111.359 321.975 109.514 321.975C107.699 321.975 106.319 322.785 106.259 324.6H108.014C108.059 323.91 108.464 323.535 109.409 323.535C110.219 323.535 110.714 323.79 110.714 324.495V324.885L108.539 325.335C107.024 325.65 105.899 326.31 105.899 327.81C105.899 329.22 107.054 330.135 108.554 330.135C109.499 330.135 110.279 329.865 110.789 329.37C110.789 329.595 110.804 329.805 110.834 330H112.589C112.499 329.43 112.469 328.755 112.469 328.11ZM110.714 327.225C110.714 328.185 109.784 328.695 108.824 328.695C108.134 328.695 107.684 328.35 107.684 327.735C107.684 327.03 108.254 326.79 109.019 326.625L110.714 326.265V327.225ZM117.635 330.165C119.21 330.165 120.455 329.34 121.01 327.96L119.465 327.375C119.225 328.185 118.52 328.635 117.635 328.635C116.48 328.635 115.67 327.81 115.535 326.46H121.055V325.86C121.055 323.7 119.84 321.975 117.56 321.975C115.37 321.975 113.81 323.76 113.81 326.07C113.81 328.5 115.385 330.165 117.635 330.165ZM117.545 323.49C118.685 323.49 119.225 324.24 119.24 325.11H115.625C115.895 324.045 116.615 323.49 117.545 323.49ZM124.205 319.23H122.405V330H124.205V319.23ZM138.127 319.23H136.282V326.775L131.242 319.23H129.262V330H131.107V322.095L136.447 330H138.127V319.23ZM147.091 329.205V322.125H145.291V322.965C144.871 322.41 144.061 321.975 143.071 321.975C140.911 321.975 139.621 323.73 139.621 325.89C139.621 328.05 140.911 329.805 143.071 329.805C144.076 329.805 144.871 329.37 145.291 328.815V329.37C145.291 330.81 144.466 331.41 143.251 331.41C142.261 331.41 141.586 330.855 141.346 329.97L139.666 330.57C140.161 332.1 141.436 332.865 143.251 332.865C145.501 332.865 147.091 331.53 147.091 329.205ZM145.321 325.815V325.995C145.321 327.405 144.541 328.23 143.416 328.23C142.171 328.23 141.436 327.345 141.436 325.89C141.436 324.42 142.171 323.55 143.416 323.55C144.541 323.55 145.321 324.375 145.321 325.815ZM155.547 322.125H153.747V326.805C153.747 327.93 152.937 328.53 152.127 328.53C151.152 328.53 150.732 327.915 150.732 326.955V322.125H148.932V327.345C148.932 329.04 149.952 330.165 151.602 330.165C152.622 330.165 153.297 329.685 153.747 329.16V330H155.547V322.125ZM160.864 330.735L164.104 322.125H162.244L160.354 327.645L158.419 322.125H156.529L159.394 329.715L159.094 330.45C158.839 331.08 158.554 331.245 157.954 331.245C157.729 331.245 157.594 331.23 157.354 331.2V332.715C157.609 332.745 157.714 332.76 158.089 332.76C159.724 332.76 160.414 331.935 160.864 330.735ZM168.113 330.165C169.688 330.165 170.933 329.34 171.488 327.96L169.943 327.375C169.703 328.185 168.998 328.635 168.113 328.635C166.958 328.635 166.148 327.81 166.013 326.46H171.533V325.86C171.533 323.7 170.318 321.975 168.038 321.975C165.848 321.975 164.288 323.76 164.288 326.07C164.288 328.5 165.863 330.165 168.113 330.165ZM168.023 323.49C169.163 323.49 169.703 324.24 169.718 325.11H166.103C166.373 324.045 167.093 323.49 168.023 323.49ZM172.884 330H174.684V325.38C174.684 324.255 175.509 323.655 176.319 323.655C177.309 323.655 177.699 324.36 177.699 325.335V330H179.499V324.81C179.499 323.115 178.509 321.975 176.859 321.975C175.839 321.975 175.134 322.44 174.684 322.965V322.125H172.884V330Z" fill="black"/>
<path d="M73.6887 349H74.7082V345.086C74.7082 344.195 75.3352 343.475 76.1613 343.475C76.9582 343.475 77.4738 343.961 77.4738 344.711V349H78.4934V344.939C78.4934 344.137 79.0735 343.475 79.9524 343.475C80.843 343.475 81.2707 343.938 81.2707 344.869V349H82.2903V344.635C82.2903 343.311 81.5695 342.572 80.2805 342.572C79.4074 342.572 78.6867 343.012 78.3469 343.68H78.2531C77.9602 343.023 77.3625 342.572 76.507 342.572C75.6809 342.572 75.0832 342.965 74.802 343.645H74.7082V342.684H73.6887V349ZM83.9761 349H84.9956V345.262C84.9956 344.154 85.6343 343.475 86.6421 343.475C87.6499 343.475 88.1187 344.02 88.1187 345.156V349H89.1382V344.91C89.1382 343.41 88.3472 342.572 86.9292 342.572C85.9976 342.572 85.4058 342.965 85.0894 343.633H84.9956V342.684H83.9761V349ZM93.4315 351.227C95.1541 351.227 96.244 350.324 96.244 348.912V342.684H95.2244V343.727H95.1541C94.7674 343.012 94.076 342.572 93.1854 342.572C91.533 342.572 90.5135 343.855 90.5135 345.625V345.637C90.5135 347.406 91.5272 348.672 93.1619 348.672C94.0291 348.672 94.744 348.279 95.1424 347.582H95.2362V348.859C95.2362 349.791 94.5623 350.324 93.4315 350.324C92.5233 350.324 91.9608 349.984 91.8494 349.504L91.8436 349.498H90.7889L90.7772 349.504C90.9354 350.541 91.908 351.227 93.4315 351.227ZM93.3846 347.77C92.2127 347.77 91.5565 346.891 91.5565 345.637V345.625C91.5565 344.371 92.2127 343.475 93.3846 343.475C94.5506 343.475 95.2596 344.371 95.2596 345.625V345.637C95.2596 346.891 94.5565 347.77 93.3846 347.77ZM100.104 349.111C101.029 349.111 101.668 348.73 101.979 348.057H102.072V349H103.092V342.684H102.072V346.422C102.072 347.529 101.481 348.209 100.367 348.209C99.3595 348.209 98.9493 347.664 98.9493 346.527V342.684H97.9298V346.773C97.9298 348.268 98.6681 349.111 100.104 349.111ZM105.381 351.215C106.5 351.215 107.022 350.805 107.543 349.387L110.01 342.684H108.938L107.209 347.881H107.116L105.381 342.684H104.291L106.629 349.006L106.512 349.381C106.284 350.107 105.932 350.371 105.352 350.371C105.211 350.371 105.053 350.365 104.93 350.342V351.18C105.071 351.203 105.247 351.215 105.381 351.215ZM113.548 349.111C115.036 349.111 115.938 348.268 116.155 347.412L116.167 347.365H115.147L115.124 347.418C114.954 347.799 114.427 348.203 113.571 348.203C112.446 348.203 111.725 347.441 111.696 346.135H116.243V345.736C116.243 343.85 115.2 342.572 113.483 342.572C111.766 342.572 110.653 343.908 110.653 345.859V345.865C110.653 347.846 111.743 349.111 113.548 349.111ZM113.477 343.48C114.409 343.48 115.1 344.072 115.206 345.32H111.714C111.825 344.119 112.54 343.48 113.477 343.48ZM117.671 349H118.69V345.262C118.69 344.154 119.329 343.475 120.337 343.475C121.345 343.475 121.814 344.02 121.814 345.156V349H122.833V344.91C122.833 343.41 122.042 342.572 120.624 342.572C119.692 342.572 119.101 342.965 118.784 343.633H118.69V342.684H117.671V349ZM129.353 350.371C130.091 350.371 130.8 350.266 131.327 350.084V349.346C130.958 349.516 130.167 349.627 129.365 349.627C126.857 349.627 125.24 348.016 125.24 345.52V345.508C125.24 343.076 126.886 341.33 129.177 341.33C131.521 341.33 133.126 342.777 133.126 344.887V344.898C133.126 346.334 132.652 347.266 131.913 347.266C131.492 347.266 131.251 347.025 131.251 346.615V343.176H130.367V343.891H130.273C130.044 343.381 129.517 343.064 128.902 343.064C127.701 343.064 126.863 344.061 126.863 345.479V345.49C126.863 346.973 127.683 347.975 128.902 347.975C129.587 347.975 130.115 347.641 130.367 347.043H130.46L130.466 347.078C130.56 347.646 131.076 348.027 131.749 348.027C133.097 348.027 133.952 346.814 133.952 344.91V344.898C133.952 342.361 132.025 340.592 129.253 340.592C126.382 340.592 124.413 342.578 124.413 345.473V345.484C124.413 348.473 126.329 350.371 129.353 350.371ZM129.036 347.148C128.269 347.148 127.8 346.527 127.8 345.514V345.502C127.8 344.482 128.263 343.873 129.048 343.873C129.845 343.873 130.355 344.506 130.355 345.502V345.514C130.355 346.51 129.839 347.148 129.036 347.148ZM137.965 349.111C139.453 349.111 140.355 348.268 140.572 347.412L140.584 347.365H139.564L139.541 347.418C139.371 347.799 138.843 348.203 137.988 348.203C136.863 348.203 136.142 347.441 136.113 346.135H140.66V345.736C140.66 343.85 139.617 342.572 137.9 342.572C136.183 342.572 135.07 343.908 135.07 345.859V345.865C135.07 347.846 136.16 349.111 137.965 349.111ZM137.894 343.48C138.826 343.48 139.517 344.072 139.623 345.32H136.131C136.242 344.119 136.957 343.48 137.894 343.48ZM141.35 349H142.492L143.992 346.615H144.086L145.58 349H146.775L144.602 345.801L146.746 342.684H145.603L144.121 345.033H144.027L142.527 342.684H141.326L143.512 345.842L141.35 349ZM149.727 349.111C150.576 349.111 151.239 348.742 151.637 348.068H151.731V349H152.75V344.676C152.75 343.363 151.889 342.572 150.348 342.572C149 342.572 148.039 343.24 147.875 344.23L147.869 344.266H148.889L148.895 344.248C149.059 343.756 149.557 343.475 150.313 343.475C151.256 343.475 151.731 343.896 151.731 344.676V345.25L149.92 345.361C148.449 345.449 147.617 346.1 147.617 347.225V347.236C147.617 348.385 148.526 349.111 149.727 349.111ZM148.66 347.213V347.201C148.66 346.574 149.082 346.234 150.043 346.176L151.731 346.07V346.645C151.731 347.547 150.975 348.227 149.938 348.227C149.205 348.227 148.66 347.852 148.66 347.213ZM154.46 349H155.479V345.086C155.479 344.195 156.106 343.475 156.932 343.475C157.729 343.475 158.245 343.961 158.245 344.711V349H159.264V344.939C159.264 344.137 159.844 343.475 160.723 343.475C161.614 343.475 162.042 343.938 162.042 344.869V349H163.061V344.635C163.061 343.311 162.34 342.572 161.051 342.572C160.178 342.572 159.458 343.012 159.118 343.68H159.024C158.731 343.023 158.133 342.572 157.278 342.572C156.452 342.572 155.854 342.965 155.573 343.645H155.479V342.684H154.46V349ZM164.747 351.109H165.766V348.004H165.86C166.206 348.678 166.962 349.111 167.829 349.111C169.434 349.111 170.477 347.828 170.477 345.848V345.836C170.477 343.867 169.429 342.572 167.829 342.572C166.95 342.572 166.247 342.988 165.86 343.691H165.766V342.684H164.747V351.109ZM167.595 348.209C166.446 348.209 165.743 347.307 165.743 345.848V345.836C165.743 344.377 166.446 343.475 167.595 343.475C168.749 343.475 169.434 344.365 169.434 345.836V345.848C169.434 347.318 168.749 348.209 167.595 348.209ZM171.976 349H172.995V340.176H171.976V349ZM177.376 349.111C178.865 349.111 179.767 348.268 179.984 347.412L179.996 347.365H178.976L178.953 347.418C178.783 347.799 178.255 348.203 177.4 348.203C176.275 348.203 175.554 347.441 175.525 346.135H180.072V345.736C180.072 343.85 179.029 342.572 177.312 342.572C175.595 342.572 174.482 343.908 174.482 345.859V345.865C174.482 347.846 175.572 349.111 177.376 349.111ZM177.306 343.48C178.238 343.48 178.929 344.072 179.035 345.32H175.542C175.654 344.119 176.369 343.48 177.306 343.48ZM182.332 349.059C182.754 349.059 183.094 348.713 183.094 348.297C183.094 347.875 182.754 347.535 182.332 347.535C181.916 347.535 181.57 347.875 181.57 348.297C181.57 348.713 181.916 349.059 182.332 349.059ZM187.258 349.111C188.775 349.111 189.625 348.297 189.883 347.154L189.895 347.09L188.887 347.096L188.875 347.131C188.641 347.834 188.102 348.209 187.252 348.209C186.127 348.209 185.4 347.277 185.4 345.824V345.812C185.4 344.389 186.115 343.475 187.252 343.475C188.16 343.475 188.723 343.979 188.881 344.6L188.887 344.617H189.9L189.895 344.582C189.707 343.457 188.787 342.572 187.252 342.572C185.483 342.572 184.358 343.85 184.358 345.812V345.824C184.358 347.828 185.488 349.111 187.258 349.111ZM193.83 349.111C195.629 349.111 196.743 347.869 196.743 345.848V345.836C196.743 343.809 195.629 342.572 193.83 342.572C192.032 342.572 190.918 343.809 190.918 345.836V345.848C190.918 347.869 192.032 349.111 193.83 349.111ZM193.83 348.209C192.635 348.209 191.961 347.336 191.961 345.848V345.836C191.961 344.342 192.635 343.475 193.83 343.475C195.026 343.475 195.7 344.342 195.7 345.836V345.848C195.7 347.336 195.026 348.209 193.83 348.209ZM198.171 349H199.19V345.086C199.19 344.195 199.817 343.475 200.643 343.475C201.44 343.475 201.956 343.961 201.956 344.711V349H202.975V344.939C202.975 344.137 203.555 343.475 204.434 343.475C205.325 343.475 205.753 343.938 205.753 344.869V349H206.772V344.635C206.772 343.311 206.051 342.572 204.762 342.572C203.889 342.572 203.169 343.012 202.829 343.68H202.735C202.442 343.023 201.844 342.572 200.989 342.572C200.163 342.572 199.565 342.965 199.284 343.645H199.19V342.684H198.171V349Z" fill="#6A7383"/>
<path d="M26.2635 330V327.55H28.1395V326.066H26.2915V319.948H24.0235L19.8795 326.15V327.55H24.6255V330H26.2635ZM21.6715 326.066L24.5975 321.67V326.066H21.6715ZM28.8444 323.546H30.8744V321.516H28.8444V323.546ZM28.8444 328.432H30.8744V326.402H28.8444V328.432ZM35.5169 330.154C37.7149 330.154 39.0729 328.768 39.0729 327.158C39.0729 325.842 38.3029 325.086 37.3369 324.778C38.1629 324.484 38.7649 323.63 38.7649 322.608C38.7649 320.97 37.5749 319.794 35.5589 319.794C33.5429 319.794 32.2129 321.138 31.9469 322.832L33.5569 323.126C33.7529 322.034 34.4529 321.278 35.5029 321.278C36.4969 321.278 37.0849 321.824 37.0849 322.706C37.0849 323.602 36.4269 324.064 35.3629 324.064H34.3829V325.576H35.3769C36.5389 325.576 37.3509 326.024 37.3509 327.046C37.3509 328.082 36.5809 328.67 35.4889 328.67C34.4249 328.67 33.5709 327.97 33.4029 326.752L31.6809 327.074C31.9749 329.09 33.5429 330.154 35.5169 330.154ZM39.8209 324.974C39.8209 328.04 41.2769 330.154 43.7689 330.154C46.2609 330.154 47.7169 328.04 47.7169 324.974C47.7169 321.908 46.2609 319.794 43.7689 319.794C41.2769 319.794 39.8209 321.908 39.8209 324.974ZM41.6129 324.974C41.6129 322.86 42.2849 321.348 43.7689 321.348C45.2529 321.348 45.9249 322.86 45.9249 324.974C45.9249 327.088 45.2529 328.6 43.7689 328.6C42.2849 328.6 41.6129 327.088 41.6129 324.974Z" fill="#27282D"/>
<path d="M25.4835 344.108H27.7095C29.9495 344.108 31.3495 343.03 31.3495 341.028C31.3495 338.998 29.9495 337.948 27.7095 337.948H23.6915V348H25.4835V344.108ZM25.4835 342.568V339.488H27.6115C28.8995 339.488 29.5855 340.034 29.5855 341.028C29.5855 342.008 28.8995 342.568 27.6115 342.568H25.4835ZM38.2912 348L40.9232 340.23V348H42.5892V337.948H40.1812L37.5912 345.648L35.0012 337.948H32.5372V348H34.2032V340.23L36.8352 348H38.2912Z" fill="#27282D"/>
<path opacity="0.4" d="M0 36C0 31.5817 3.58172 28 8 28H362.024C366.442 28 370.024 31.5817 370.024 36V92C370.024 96.4183 366.442 100 362.024 100H8.00001C3.58174 100 0 96.4183 0 92V36Z" fill="white"/>
<path opacity="0.4" d="M0 29.9526C0 28.8742 0.874223 28 1.95263 28C3.03104 28 3.90526 28.8742 3.90526 29.9526V98.0474C3.90526 99.1258 3.03104 100 1.95263 100C0.874223 100 0 99.1258 0 98.0474V29.9526Z" fill="#3A713E"/>
<g opacity="0.6">
<path d="M74.7032 53.83V58H72.7832V47.23H77.0882C79.4882 47.23 80.9882 48.355 80.9882 50.53C80.9882 52.675 79.4882 53.83 77.0882 53.83H74.7032ZM74.7032 52.18H76.9832C78.3632 52.18 79.0982 51.58 79.0982 50.53C79.0982 49.465 78.3632 48.88 76.9832 48.88H74.7032V52.18ZM82.0092 49.075V47.23H83.8692V49.075H82.0092ZM83.8392 50.125V58H82.0392V50.125H83.8392ZM89.0606 58.165C86.8106 58.165 85.2356 56.5 85.2356 54.07C85.2356 51.76 86.7956 49.975 88.9856 49.975C91.2656 49.975 92.4806 51.7 92.4806 53.86V54.46H86.9606C87.0956 55.81 87.9056 56.635 89.0606 56.635C89.9456 56.635 90.6506 56.185 90.8906 55.375L92.4356 55.96C91.8806 57.34 90.6356 58.165 89.0606 58.165ZM88.9706 51.49C88.0406 51.49 87.3206 52.045 87.0506 53.11H90.6656C90.6506 52.24 90.1106 51.49 88.9706 51.49ZM98.3012 50.11V51.91C98.0762 51.88 97.8962 51.865 97.6412 51.865C96.5012 51.865 95.6312 52.6 95.6312 53.86V58H93.8312V50.125H95.6312V51.295C95.9762 50.56 96.7862 50.08 97.7912 50.08C98.0012 50.08 98.1662 50.095 98.3012 50.11ZM104.014 50.11V51.91C103.789 51.88 103.609 51.865 103.354 51.865C102.214 51.865 101.344 52.6 101.344 53.86V58H99.5441V50.125H101.344V51.295C101.689 50.56 102.499 50.08 103.504 50.08C103.714 50.08 103.879 50.095 104.014 50.11ZM108.206 58.165C105.956 58.165 104.381 56.5 104.381 54.07C104.381 51.76 105.941 49.975 108.131 49.975C110.411 49.975 111.626 51.7 111.626 53.86V54.46H106.106C106.241 55.81 107.051 56.635 108.206 56.635C109.091 56.635 109.796 56.185 110.036 55.375L111.581 55.96C111.026 57.34 109.781 58.165 108.206 58.165ZM108.116 51.49C107.186 51.49 106.466 52.045 106.196 53.11H109.811C109.796 52.24 109.256 51.49 108.116 51.49ZM116.143 58V47.23H120.418C122.728 47.23 123.958 48.235 123.958 50.065C123.958 51.4 123.178 52.09 122.428 52.39C123.553 52.75 124.303 53.68 124.303 55C124.303 56.89 122.908 58 120.688 58H116.143ZM117.988 51.685H120.238C121.468 51.685 122.143 51.205 122.143 50.26C122.143 49.315 121.468 48.85 120.238 48.85H117.988V51.685ZM117.988 53.305V56.38H120.583C121.798 56.38 122.458 55.75 122.458 54.835C122.458 53.935 121.798 53.305 120.583 53.305H117.988ZM130.118 50.11V51.91C129.893 51.88 129.713 51.865 129.458 51.865C128.318 51.865 127.448 52.6 127.448 53.86V58H125.648V50.125H127.448V51.295C127.793 50.56 128.603 50.08 129.608 50.08C129.818 50.08 129.983 50.095 130.118 50.11ZM131.33 49.075V47.23H133.19V49.075H131.33ZM133.16 50.125V58H131.36V50.125H133.16ZM138.022 58.165C135.817 58.165 134.557 56.305 134.557 54.07C134.557 51.835 135.817 49.975 138.022 49.975C139.042 49.975 139.792 50.38 140.287 50.965V47.23H142.087V58H140.287V57.175C139.792 57.76 139.042 58.165 138.022 58.165ZM140.332 53.845C140.332 52.36 139.492 51.55 138.382 51.55C137.077 51.55 136.372 52.57 136.372 54.07C136.372 55.57 137.077 56.59 138.382 56.59C139.492 56.59 140.332 55.765 140.332 54.31V53.845ZM143.943 49.075V47.23H145.803V49.075H143.943ZM145.773 50.125V58H143.973V50.125H145.773ZM150.994 58.165C148.744 58.165 147.169 56.5 147.169 54.07C147.169 51.76 148.729 49.975 150.919 49.975C153.199 49.975 154.414 51.7 154.414 53.86V54.46H148.894C149.029 55.81 149.839 56.635 150.994 56.635C151.879 56.635 152.584 56.185 152.824 55.375L154.369 55.96C153.814 57.34 152.569 58.165 150.994 58.165ZM150.904 51.49C149.974 51.49 149.254 52.045 148.984 53.11H152.599C152.584 52.24 152.044 51.49 150.904 51.49ZM160.235 50.11V51.91C160.01 51.88 159.83 51.865 159.575 51.865C158.435 51.865 157.565 52.6 157.565 53.86V58H155.765V50.125H157.565V51.295C157.91 50.56 158.72 50.08 159.725 50.08C159.935 50.08 160.1 50.095 160.235 50.11Z" fill="#27282D"/>
<path d="M72.7124 79.1094V70.6836H73.7319V71.6914H73.8257C74.2124 70.9883 74.9155 70.5723 75.7944 70.5723C77.394 70.5723 78.4428 71.8672 78.4428 73.8359V73.8477C78.4428 75.8281 77.3999 77.1113 75.7944 77.1113C74.9272 77.1113 74.1714 76.6777 73.8257 76.0039H73.7319V79.1094H72.7124ZM75.56 76.209C76.7143 76.209 77.3999 75.3184 77.3999 73.8477V73.8359C77.3999 72.3652 76.7143 71.4746 75.56 71.4746C74.4116 71.4746 73.7085 72.377 73.7085 73.8359V73.8477C73.7085 75.3066 74.4116 76.209 75.56 76.209ZM83.1772 77.1113C82.2983 77.1113 81.5952 76.6953 81.2085 75.9922H81.1147V77H80.0952V68.1758H81.1147V71.6797H81.2085C81.5542 71.0059 82.31 70.5723 83.1772 70.5723C84.7827 70.5723 85.8257 71.8555 85.8257 73.8359V73.8477C85.8257 75.8164 84.7768 77.1113 83.1772 77.1113ZM82.9428 76.209C84.0971 76.209 84.7827 75.3184 84.7827 73.8477V73.8359C84.7827 72.3652 84.0971 71.4746 82.9428 71.4746C81.7944 71.4746 81.0913 72.377 81.0913 73.8359V73.8477C81.0913 75.3066 81.7944 76.209 82.9428 76.209ZM87.4077 77V70.6836H88.4272V71.6211H88.521C88.7612 70.959 89.353 70.5723 90.2085 70.5723C90.4018 70.5723 90.6186 70.5957 90.7182 70.6133V71.6035C90.5073 71.5684 90.3139 71.5449 90.0913 71.5449C89.1186 71.5449 88.4272 72.1602 88.4272 73.0859V77H87.4077ZM92.5171 69.4648C92.1303 69.4648 91.8139 69.1484 91.8139 68.7617C91.8139 68.375 92.1303 68.0586 92.5171 68.0586C92.9038 68.0586 93.2202 68.375 93.2202 68.7617C93.2202 69.1484 92.9038 69.4648 92.5171 69.4648ZM92.0014 77V70.6836H93.021V77H92.0014ZM97.2749 77.1113C95.6753 77.1113 94.6264 75.8164 94.6264 73.8477V73.8359C94.6264 71.8555 95.6694 70.5723 97.2749 70.5723C98.1421 70.5723 98.8979 71.0059 99.2436 71.6797H99.3374V68.1758H100.357V77H99.3374V75.9922H99.2436C98.8569 76.6953 98.1538 77.1113 97.2749 77.1113ZM97.5092 76.209C98.6577 76.209 99.3608 75.3066 99.3608 73.8477V73.8359C99.3608 72.377 98.6577 71.4746 97.5092 71.4746C96.3549 71.4746 95.6694 72.3652 95.6694 73.8359V73.8477C95.6694 75.3184 96.3549 76.209 97.5092 76.209ZM102.853 69.4648C102.466 69.4648 102.15 69.1484 102.15 68.7617C102.15 68.375 102.466 68.0586 102.853 68.0586C103.24 68.0586 103.556 68.375 103.556 68.7617C103.556 69.1484 103.24 69.4648 102.853 69.4648ZM102.337 77V70.6836H103.357V77H102.337ZM107.857 77.1113C106.052 77.1113 104.962 75.8457 104.962 73.8652V73.8594C104.962 71.9082 106.076 70.5723 107.792 70.5723C109.509 70.5723 110.552 71.8496 110.552 73.7363V74.1348H106.005C106.035 75.4414 106.755 76.2031 107.88 76.2031C108.736 76.2031 109.263 75.7988 109.433 75.418L109.457 75.3652H110.476L110.464 75.4121C110.248 76.2676 109.345 77.1113 107.857 77.1113ZM107.787 71.4805C106.849 71.4805 106.134 72.1191 106.023 73.3203H109.515C109.41 72.0723 108.718 71.4805 107.787 71.4805ZM112.134 77V70.6836H113.154V71.6211H113.248C113.488 70.959 114.08 70.5723 114.935 70.5723C115.128 70.5723 115.345 70.5957 115.445 70.6133V71.6035C115.234 71.5684 115.04 71.5449 114.818 71.5449C113.845 71.5449 113.154 72.1602 113.154 73.0859V77H112.134ZM121.533 78.3711C118.509 78.3711 116.593 76.4727 116.593 73.4844V73.4727C116.593 70.5781 118.562 68.5918 121.433 68.5918C124.205 68.5918 126.132 70.3613 126.132 72.8984V72.9102C126.132 74.8145 125.277 76.0273 123.929 76.0273C123.255 76.0273 122.74 75.6465 122.646 75.0781L122.64 75.043H122.546C122.294 75.6406 121.767 75.9746 121.082 75.9746C119.863 75.9746 119.042 74.9727 119.042 73.4902V73.4785C119.042 72.0605 119.88 71.0645 121.082 71.0645C121.697 71.0645 122.224 71.3809 122.453 71.8906H122.546V71.1758H123.431V74.6152C123.431 75.0254 123.671 75.2656 124.093 75.2656C124.832 75.2656 125.306 74.334 125.306 72.8984V72.8867C125.306 70.7773 123.701 69.3301 121.357 69.3301C119.066 69.3301 117.419 71.0762 117.419 73.5078V73.5195C117.419 76.0156 119.037 77.627 121.544 77.627C122.347 77.627 123.138 77.5156 123.507 77.3457V78.084C122.98 78.2656 122.271 78.3711 121.533 78.3711ZM121.216 75.1484C122.019 75.1484 122.535 74.5098 122.535 73.5137V73.502C122.535 72.5059 122.025 71.873 121.228 71.873C120.443 71.873 119.98 72.4824 119.98 73.502V73.5137C119.98 74.5273 120.449 75.1484 121.216 75.1484ZM130.298 77.1113C128.494 77.1113 127.404 75.8457 127.404 73.8652V73.8594C127.404 71.9082 128.517 70.5723 130.234 70.5723C131.951 70.5723 132.994 71.8496 132.994 73.7363V74.1348H128.447C128.476 75.4414 129.197 76.2031 130.322 76.2031C131.177 76.2031 131.705 75.7988 131.874 75.418L131.898 75.3652H132.917L132.906 75.4121C132.689 76.2676 131.787 77.1113 130.298 77.1113ZM130.228 71.4805C129.29 71.4805 128.576 72.1191 128.464 73.3203H131.957C131.851 72.0723 131.16 71.4805 130.228 71.4805ZM133.837 77L135.999 73.8418L133.814 70.6836H135.015L136.515 73.0332H136.609L138.091 70.6836H139.234L137.089 73.8008L139.263 77H138.068L136.574 74.6152H136.48L134.98 77H133.837ZM142.369 77.1113C141.167 77.1113 140.259 76.3848 140.259 75.2363V75.2246C140.259 74.0996 141.091 73.4492 142.562 73.3613L144.373 73.25V72.6758C144.373 71.8965 143.898 71.4746 142.955 71.4746C142.199 71.4746 141.701 71.7559 141.537 72.248L141.531 72.2656H140.511L140.517 72.2305C140.681 71.2402 141.642 70.5723 142.99 70.5723C144.531 70.5723 145.392 71.3633 145.392 72.6758V77H144.373V76.0684H144.279C143.88 76.7422 143.218 77.1113 142.369 77.1113ZM141.302 75.2129C141.302 75.8516 141.847 76.2266 142.58 76.2266C143.617 76.2266 144.373 75.5469 144.373 74.6445V74.0703L142.685 74.1758C141.724 74.2344 141.302 74.5742 141.302 75.2012V75.2129ZM147.255 77V70.6836H148.275V71.6445H148.369C148.65 70.9648 149.248 70.5723 150.074 70.5723C150.929 70.5723 151.527 71.0234 151.82 71.6797H151.914C152.253 71.0117 152.974 70.5723 153.847 70.5723C155.136 70.5723 155.857 71.3105 155.857 72.6348V77H154.837V72.8691C154.837 71.9375 154.41 71.4746 153.519 71.4746C152.64 71.4746 152.06 72.1367 152.06 72.9395V77H151.04V72.7109C151.04 71.9609 150.525 71.4746 149.728 71.4746C148.902 71.4746 148.275 72.1953 148.275 73.0859V77H147.255ZM157.697 79.1094V70.6836H158.716V71.6914H158.81C159.197 70.9883 159.9 70.5723 160.779 70.5723C162.378 70.5723 163.427 71.8672 163.427 73.8359V73.8477C163.427 75.8281 162.384 77.1113 160.779 77.1113C159.912 77.1113 159.156 76.6777 158.81 76.0039H158.716V79.1094H157.697ZM160.544 76.209C161.699 76.209 162.384 75.3184 162.384 73.8477V73.8359C162.384 72.3652 161.699 71.4746 160.544 71.4746C159.396 71.4746 158.693 72.377 158.693 73.8359V73.8477C158.693 75.3066 159.396 76.209 160.544 76.209ZM165.08 77V68.1758H166.099V77H165.08ZM170.634 77.1113C168.83 77.1113 167.74 75.8457 167.74 73.8652V73.8594C167.74 71.9082 168.853 70.5723 170.57 70.5723C172.287 70.5723 173.33 71.8496 173.33 73.7363V74.1348H168.783C168.812 75.4414 169.533 76.2031 170.658 76.2031C171.513 76.2031 172.04 75.7988 172.21 75.418L172.234 75.3652H173.253L173.242 75.4121C173.025 76.2676 172.123 77.1113 170.634 77.1113ZM170.564 71.4805C169.626 71.4805 168.912 72.1191 168.8 73.3203H172.292C172.187 72.0723 171.496 71.4805 170.564 71.4805ZM175.744 77.0586C175.328 77.0586 174.982 76.7129 174.982 76.2969C174.982 75.875 175.328 75.5352 175.744 75.5352C176.165 75.5352 176.505 75.875 176.505 76.2969C176.505 76.7129 176.165 77.0586 175.744 77.0586ZM180.824 77.1113C179.054 77.1113 177.923 75.8281 177.923 73.8242V73.8125C177.923 71.8496 179.048 70.5723 180.818 70.5723C182.353 70.5723 183.273 71.457 183.46 72.582L183.466 72.6172H182.453L182.447 72.5996C182.289 71.9785 181.726 71.4746 180.818 71.4746C179.681 71.4746 178.966 72.3887 178.966 73.8125V73.8242C178.966 75.2773 179.693 76.209 180.818 76.209C181.667 76.209 182.207 75.834 182.441 75.1309L182.453 75.0957L183.46 75.0898L183.449 75.1543C183.191 76.2969 182.341 77.1113 180.824 77.1113ZM187.55 77.1113C185.751 77.1113 184.638 75.8691 184.638 73.8477V73.8359C184.638 71.8086 185.751 70.5723 187.55 70.5723C189.349 70.5723 190.462 71.8086 190.462 73.8359V73.8477C190.462 75.8691 189.349 77.1113 187.55 77.1113ZM187.55 76.209C188.746 76.209 189.419 75.3359 189.419 73.8477V73.8359C189.419 72.3418 188.746 71.4746 187.55 71.4746C186.355 71.4746 185.681 72.3418 185.681 73.8359V73.8477C185.681 75.3359 186.355 76.209 187.55 76.209ZM192.044 77V70.6836H193.064V71.6445H193.158C193.439 70.9648 194.037 70.5723 194.863 70.5723C195.718 70.5723 196.316 71.0234 196.609 71.6797H196.703C197.042 71.0117 197.763 70.5723 198.636 70.5723C199.925 70.5723 200.646 71.3105 200.646 72.6348V77H199.626V72.8691C199.626 71.9375 199.199 71.4746 198.308 71.4746C197.429 71.4746 196.849 72.1367 196.849 72.9395V77H195.83V72.7109C195.83 71.9609 195.314 71.4746 194.517 71.4746C193.691 71.4746 193.064 72.1953 193.064 73.0859V77H192.044Z" fill="#6A7383"/>
</g>
<path d="M21.7735 401.492C22.0675 401.086 22.6135 400.75 23.3415 400.75C24.4615 400.75 25.1755 401.632 25.1755 402.738C25.1755 403.844 24.3355 404.67 23.2435 404.67C22.1655 404.67 21.4095 403.956 21.2415 402.822L19.5195 403.13C19.8415 405.076 21.2695 406.154 23.2435 406.154C25.3155 406.154 26.8555 404.656 26.8555 402.682C26.8555 400.764 25.5815 399.294 23.5795 399.294C22.7815 399.294 22.1515 399.602 21.7455 399.98L21.9695 397.516H26.2535V395.948H20.5975L20.1495 401.268L21.7735 401.492ZM27.8385 399.546H29.8685V397.516H27.8385V399.546ZM27.8385 404.432H29.8685V402.402H27.8385V404.432ZM34.5111 406.154C36.7091 406.154 38.0671 404.768 38.0671 403.158C38.0671 401.842 37.2971 401.086 36.3311 400.778C37.1571 400.484 37.7591 399.63 37.7591 398.608C37.7591 396.97 36.5691 395.794 34.5531 395.794C32.5371 395.794 31.2071 397.138 30.9411 398.832L32.5511 399.126C32.7471 398.034 33.4471 397.278 34.4971 397.278C35.4911 397.278 36.0791 397.824 36.0791 398.706C36.0791 399.602 35.4211 400.064 34.3571 400.064H33.3771V401.576H34.3711C35.5331 401.576 36.3451 402.024 36.3451 403.046C36.3451 404.082 35.5751 404.67 34.4831 404.67C33.4191 404.67 32.5651 403.97 32.3971 402.752L30.6751 403.074C30.9691 405.09 32.5371 406.154 34.5111 406.154ZM38.8151 400.974C38.8151 404.04 40.2711 406.154 42.7631 406.154C45.2551 406.154 46.7111 404.04 46.7111 400.974C46.7111 397.908 45.2551 395.794 42.7631 395.794C40.2711 395.794 38.8151 397.908 38.8151 400.974ZM40.6071 400.974C40.6071 398.86 41.2791 397.348 42.7631 397.348C44.2471 397.348 44.9191 398.86 44.9191 400.974C44.9191 403.088 44.2471 404.6 42.7631 404.6C41.2791 404.6 40.6071 403.088 40.6071 400.974Z" fill="#27282D"/>
<path d="M24.9835 420.108H27.2095C29.4495 420.108 30.8495 419.03 30.8495 417.028C30.8495 414.998 29.4495 413.948 27.2095 413.948H23.1915V424H24.9835V420.108ZM24.9835 418.568V415.488H27.1115C28.3995 415.488 29.0855 416.034 29.0855 417.028C29.0855 418.008 28.3995 418.568 27.1115 418.568H24.9835ZM37.7912 424L40.4232 416.23V424H42.0892V413.948H39.6812L37.0912 421.648L34.5012 413.948H32.0372V424H33.7032V416.23L36.3352 424H37.7912Z" fill="#27282D"/>
<path d="M25.2112 65.948L21.4032 76H23.1812L24.0352 73.704H28.3752L29.2432 76H31.0492L27.2412 65.948H25.2112ZM26.1912 67.936L27.7872 72.136H24.6232L26.1912 67.936ZM37.895 76L40.527 68.23V76H42.193V65.948H39.785L37.195 73.648L34.605 65.948H32.141V76H33.807V68.23L36.439 76H37.895Z" fill="#27282D"/>
<path d="M19.8755 47.878C19.7775 49.068 19.2595 49.502 17.9995 49.614L17.0195 49.698V51.028H19.4415V58H21.2335V47.878H19.8755ZM22.7389 52.974C22.7389 56.04 24.1949 58.154 26.6869 58.154C29.1789 58.154 30.6349 56.04 30.6349 52.974C30.6349 49.908 29.1789 47.794 26.6869 47.794C24.1949 47.794 22.7389 49.908 22.7389 52.974ZM24.5309 52.974C24.5309 50.86 25.2029 49.348 26.6869 49.348C28.1709 49.348 28.8429 50.86 28.8429 52.974C28.8429 55.088 28.1709 56.6 26.6869 56.6C25.2029 56.6 24.5309 55.088 24.5309 52.974ZM31.6686 51.546H33.6986V49.516H31.6686V51.546ZM31.6686 56.432H33.6986V54.402H31.6686V56.432ZM38.3412 58.154C40.5392 58.154 41.8972 56.768 41.8972 55.158C41.8972 53.842 41.1272 53.086 40.1612 52.778C40.9872 52.484 41.5892 51.63 41.5892 50.608C41.5892 48.97 40.3992 47.794 38.3832 47.794C36.3672 47.794 35.0372 49.138 34.7712 50.832L36.3812 51.126C36.5772 50.034 37.2772 49.278 38.3272 49.278C39.3212 49.278 39.9092 49.824 39.9092 50.706C39.9092 51.602 39.2512 52.064 38.1872 52.064H37.2072V53.576H38.2012C39.3632 53.576 40.1752 54.024 40.1752 55.046C40.1752 56.082 39.4052 56.67 38.3132 56.67C37.2492 56.67 36.3952 55.97 36.2272 54.752L34.5052 55.074C34.7992 57.09 36.3672 58.154 38.3412 58.154ZM42.6452 52.974C42.6452 56.04 44.1012 58.154 46.5932 58.154C49.0852 58.154 50.5412 56.04 50.5412 52.974C50.5412 49.908 49.0852 47.794 46.5932 47.794C44.1012 47.794 42.6452 49.908 42.6452 52.974ZM44.4372 52.974C44.4372 50.86 45.1092 49.348 46.5932 49.348C48.0772 49.348 48.7492 50.86 48.7492 52.974C48.7492 55.088 48.0772 56.6 46.5932 56.6C45.1092 56.6 44.4372 55.088 44.4372 52.974Z" fill="#27282D"/>
</svg>
