<svg width="22" height="16" viewBox="0 0 22 16" fill="none" xmlns="http://www.w3.org/2000/svg">
<path d="M0.468083 14.6304C0.263942 14.9241 0.336601 15.3278 0.630371 15.5319C0.924141 15.7361 1.32778 15.6634 1.53192 15.3696L0.468083 14.6304ZM4.80207 9.52861L4.27015 9.15898L4.27015 9.15898L4.80207 9.52861ZM7.12578 9.04322L7.46526 8.49157L7.12578 9.04322ZM11.22 11.5628L11.5595 11.0111L11.22 11.5628ZM13.625 10.9487L14.1874 11.27L13.625 10.9487ZM19.8311 1.01121C19.737 0.666081 19.3809 0.462603 19.0357 0.556729L13.4115 2.0906C13.0664 2.18473 12.8629 2.54082 12.957 2.88595C13.0512 3.23107 13.4073 3.43455 13.7524 3.34043L18.7517 1.97698L20.1151 6.97628C20.2093 7.32141 20.5653 7.52489 20.9105 7.43076C21.2556 7.33663 21.4591 6.98055 21.365 6.63542L19.8311 1.01121ZM1.53192 15.3696L5.33398 9.89824L4.27015 9.15898L0.468083 14.6304L1.53192 15.3696ZM6.78631 9.59487L10.8805 12.1144L11.5595 11.0111L7.46526 8.49157L6.78631 9.59487ZM14.1874 11.27L19.7686 1.50301L18.6438 0.860274L13.0626 10.6273L14.1874 11.27ZM10.8805 12.1144C12.0234 12.8177 13.5216 12.4352 14.1874 11.27L13.0626 10.6273C12.76 11.1569 12.079 11.3308 11.5595 11.0111L10.8805 12.1144ZM5.33398 9.89824C5.66091 9.42778 6.29839 9.29462 6.78631 9.59487L7.46526 8.49157C6.39185 7.83101 4.98938 8.12397 4.27015 9.15898L5.33398 9.89824Z" fill="#3A713E"/>
</svg>
