<svg width="80" height="38" viewBox="0 0 80 38" fill="none" xmlns="http://www.w3.org/2000/svg">
<path d="M1 32.8358C3.07096 32.8358 14.0438 42.4699 16.5031 32.4699C17.0903 30.0823 23.9391 32.4699 27.4339 32.4699C30.9286 32.4699 32.8653 32.4699 37.0072 32.4699C41.1491 32.4699 43.6616 27.665 46.5091 27.665C49.3567 27.665 52.3112 32.8358 56.5826 32.8358C60.8539 32.8358 62.4157 24.9089 66.2988 24.9089C70.1818 24.9089 75.117 23.165 79 23.165" stroke="#C0C8D2" stroke-width="1.5" stroke-linecap="round" stroke-dasharray="8 4"/>
<path d="M1 28.1651C4.12983 32.5706 12.0473 28.1651 17.1032 28.1651C23.4231 28.1651 26.5529 18.1984 30.706 18.1984C34.859 18.1984 38.7111 23.1817 44.3087 23.1817C49.9063 23.1817 53.5778 8.88173 57.9114 8.88173C62.245 8.88173 63.9032 -0.334961 79 1.16506" stroke="#3A713E" stroke-width="1.5" stroke-linecap="round"/>
</svg>
