<svg width="144" height="34" viewBox="0 0 144 34" fill="none" xmlns="http://www.w3.org/2000/svg">
<path d="M52.5285 11.1426V17.8574H45.0624V11.1426H41.6111V28H45.0624V20.8391H52.5285V28H55.9798V11.1426H52.5285ZM70.2846 21.8252C70.2846 17.9983 67.7959 15.4157 64.2272 15.4157C60.6585 15.4157 58.1698 17.9983 58.1698 21.8252C58.1698 25.6757 60.6585 28.2583 64.2272 28.2583C67.7959 28.2583 70.2846 25.6757 70.2846 21.8252ZM61.4333 21.8252C61.4333 19.5009 62.5133 18.1391 64.2272 18.1391C65.9411 18.1391 66.9977 19.5009 66.9977 21.8252C66.9977 24.173 65.9411 25.5348 64.2272 25.5348C62.5133 25.5348 61.4333 24.173 61.4333 21.8252ZM75.645 20.8626C75.645 19.2426 76.7485 18.4209 77.8285 18.4209C79.1902 18.4209 79.7067 19.407 79.7067 20.7922V28H82.9937V20.8626C82.9937 19.2426 84.0972 18.4209 85.1772 18.4209C86.5389 18.4209 87.0554 19.407 87.0554 20.7922V28H90.3424V19.853C90.3424 17.1765 88.6989 15.4157 86.1633 15.4157C84.2615 15.4157 83.0876 16.3313 82.3363 17.1061C81.6554 16.0496 80.505 15.4157 79.0024 15.4157C77.4059 15.4157 76.3024 16.12 75.645 16.9183V15.6504H72.3581V28H75.645V20.8626ZM98.4637 28.2583C100.929 28.2583 103.018 26.9904 103.911 24.7365L101.14 23.7504C100.765 24.9478 99.755 25.5583 98.4872 25.5583C96.8672 25.5583 95.7167 24.4313 95.4819 22.553H103.981V21.5904C103.981 18.1391 102.009 15.4157 98.3463 15.4157C94.848 15.4157 92.3359 18.1861 92.3359 21.8252C92.3359 25.6522 94.8245 28.2583 98.4637 28.2583ZM98.3228 18.0452C99.9193 18.0452 100.694 19.1017 100.718 20.3226H95.5993C95.9985 18.82 97.008 18.0452 98.3228 18.0452ZM112.735 28.2583C116.139 28.2583 118.111 25.347 118.111 21.8252C118.111 18.327 116.139 15.4157 112.735 15.4157C111.185 15.4157 110.011 16.0261 109.284 16.9183V11.1426H105.997V28H109.284V26.7322C110.011 27.6478 111.185 28.2583 112.735 28.2583ZM109.213 21.4965C109.213 19.3835 110.387 18.233 111.96 18.233C113.815 18.233 114.801 19.7122 114.801 21.8252C114.801 23.9617 113.815 25.4409 111.96 25.4409C110.387 25.4409 109.213 24.267 109.213 22.1774V21.4965ZM131.555 21.8252C131.555 17.9983 129.066 15.4157 125.497 15.4157C121.929 15.4157 119.44 17.9983 119.44 21.8252C119.44 25.6757 121.929 28.2583 125.497 28.2583C129.066 28.2583 131.555 25.6757 131.555 21.8252ZM122.704 21.8252C122.704 19.5009 123.784 18.1391 125.497 18.1391C127.211 18.1391 128.268 19.5009 128.268 21.8252C128.268 24.173 127.211 25.5348 125.497 25.5348C123.784 25.5348 122.704 24.173 122.704 21.8252ZM140.221 28H143.884L139.564 21.6139L143.579 15.6504H140.057L137.709 19.1957L135.385 15.6504H131.722L135.737 21.6139L131.441 28H134.962L137.592 24.0557L140.221 28Z" fill="white"/>
<path fill-rule="evenodd" clip-rule="evenodd" d="M14.1317 1.71705L13.2075 0.602539L12.2833 1.71705L10.6556 3.67983C10.5864 3.74942 10.5194 3.8224 10.4548 3.89876C10.1762 4.22791 9.89705 4.5566 9.61727 4.88497H9.60546L9.60056 4.90458C8.51049 6.18381 7.41166 7.45817 6.31016 8.7356L6.31013 8.73564L6.31011 8.73566C4.29534 11.0723 2.27167 13.4192 0.276478 15.8251C-0.146812 16.3356 -0.076165 17.0925 0.434273 17.5158C0.831723 17.8454 1.37862 17.8755 1.80109 17.6317V29.7989V30.9995H3.00177H23.4133H24.6139V29.7989V17.6318C25.0413 17.8784 25.5951 17.8441 25.9924 17.5059C26.4974 17.0762 26.5584 16.3184 26.1286 15.8134L15.9744 3.88223C15.8706 3.76026 15.7608 3.64714 15.6458 3.54283L14.1317 1.71705ZM8.79312 9.68767L4.20245 15.2235V28.5982H22.2126V15.2235L17.6219 9.68767H8.79312ZM7.80446 19.293C7.80446 18.6299 7.26689 18.0923 6.60378 18.0923C5.94066 18.0923 5.4031 18.6299 5.4031 19.293C5.4031 23.6033 8.89725 27.0974 13.2075 27.0974C17.5177 27.0974 21.0119 23.6033 21.0119 19.293C21.0119 18.6299 20.4743 18.0923 19.8112 18.0923C19.1481 18.0923 18.6105 18.6299 18.6105 19.293C18.6105 22.277 16.1915 24.696 13.2075 24.696C10.2235 24.696 7.80446 22.277 7.80446 19.293Z" fill="white"/>
</svg>
