<svg width="27" height="31" viewBox="0 0 27 31" fill="none" xmlns="http://www.w3.org/2000/svg">
<path fill-rule="evenodd" clip-rule="evenodd" d="M14.1317 1.71705L13.2075 0.602539L12.2833 1.71705L10.6556 3.67983C10.5864 3.74942 10.5194 3.8224 10.4548 3.89876C10.1762 4.22791 9.89705 4.5566 9.61727 4.88497H9.60546L9.60056 4.90458C8.51049 6.18381 7.41166 7.45817 6.31016 8.7356L6.31013 8.73564L6.31011 8.73566C4.29534 11.0723 2.27167 13.4192 0.276478 15.8251C-0.146812 16.3356 -0.076165 17.0925 0.434273 17.5158C0.831723 17.8454 1.37862 17.8755 1.80109 17.6317V29.7989V30.9995H3.00177H23.4133H24.6139V29.7989V17.6318C25.0413 17.8784 25.5951 17.8441 25.9924 17.5059C26.4974 17.0762 26.5584 16.3184 26.1286 15.8134L15.9744 3.88223C15.8706 3.76026 15.7608 3.64714 15.6458 3.54283L14.1317 1.71705ZM8.79312 9.68767L4.20245 15.2235V28.5982H22.2126V15.2235L17.6219 9.68767H8.79312ZM7.80446 19.293C7.80446 18.6299 7.26689 18.0923 6.60378 18.0923C5.94066 18.0923 5.4031 18.6299 5.4031 19.293C5.4031 23.6033 8.89725 27.0974 13.2075 27.0974C17.5177 27.0974 21.0119 23.6033 21.0119 19.293C21.0119 18.6299 20.4743 18.0923 19.8112 18.0923C19.1481 18.0923 18.6105 18.6299 18.6105 19.293C18.6105 22.277 16.1915 24.696 13.2075 24.696C10.2235 24.696 7.80446 22.277 7.80446 19.293Z" fill="white"/>
</svg>
