<svg width="666" height="228" viewBox="0 0 666 228" fill="none" xmlns="http://www.w3.org/2000/svg">
<path d="M5.52979 156H6.88867V148.25H5.51904L3.49414 149.673V150.946L5.49756 149.571H5.52979V156ZM11.9825 156.134C13.8785 156.134 15.0279 154.593 15.0279 152.127V152.117C15.0279 149.651 13.8785 148.115 11.9825 148.115C10.0811 148.115 8.93708 149.651 8.93708 152.117V152.127C8.93708 154.593 10.0811 156.134 11.9825 156.134ZM11.9825 155.001C10.9351 155.001 10.3336 153.916 10.3336 152.127V152.117C10.3336 150.328 10.9351 149.254 11.9825 149.254C13.0245 149.254 13.6314 150.328 13.6314 152.117V152.127C13.6314 153.916 13.0245 155.001 11.9825 155.001Z" fill="#91929B"/>
<path d="M3.57471 112H9.02637V110.867H5.40625V110.808L7.11426 109.186C8.47852 107.875 8.90283 107.257 8.90283 106.344V106.333C8.90283 105.055 7.81787 104.115 6.26562 104.115C4.69189 104.115 3.49951 105.13 3.49951 106.548V106.586H4.79932V106.548C4.81543 105.802 5.41699 105.227 6.27637 105.227C7.02295 105.227 7.54395 105.721 7.54932 106.414V106.425C7.54932 107 7.3291 107.392 6.31396 108.385L3.57471 111.055V112ZM13.3145 112.134C15.2105 112.134 16.3599 110.593 16.3599 108.127V108.117C16.3599 105.651 15.2105 104.115 13.3145 104.115C11.4132 104.115 10.2691 105.651 10.2691 108.117V108.127C10.2691 110.593 11.4132 112.134 13.3145 112.134ZM13.3145 111.001C12.2672 111.001 11.6656 109.916 11.6656 108.127V108.117C11.6656 106.328 12.2672 105.254 13.3145 105.254C14.3565 105.254 14.9634 106.328 14.9634 108.117V108.127C14.9634 109.916 14.3565 111.001 13.3145 111.001Z" fill="#91929B"/>
<path d="M6.3623 70.1343C8.07568 70.1343 9.25732 69.189 9.25732 67.8408V67.8301C9.25732 66.7559 8.5 66.0791 7.35596 65.9717V65.9448C8.28516 65.7515 8.9834 65.1123 8.9834 64.1509V64.1401C8.9834 62.937 7.94678 62.1152 6.34619 62.1152C4.7832 62.1152 3.7251 62.9854 3.6123 64.2959L3.60693 64.3604H4.896L4.90137 64.3066C4.97119 63.6406 5.52979 63.2163 6.34619 63.2163C7.17871 63.2163 7.65137 63.6245 7.65137 64.3228V64.3335C7.65137 65.0103 7.08203 65.4937 6.22803 65.4937H5.3418V66.5249H6.26025C7.24854 66.5249 7.8501 66.9761 7.8501 67.7925V67.8032C7.8501 68.5068 7.25391 69.001 6.35693 69.001C5.44922 69.001 4.84766 68.5444 4.77246 67.916L4.76709 67.8569H3.44043L3.4458 67.9214C3.55322 69.2212 4.65967 70.1343 6.3623 70.1343ZM13.6046 70.1343C15.5006 70.1343 16.65 68.5928 16.65 66.1274V66.1167C16.65 63.6514 15.5006 62.1152 13.6046 62.1152C11.7032 62.1152 10.5592 63.6514 10.5592 66.1167V66.1274C10.5592 68.5928 11.7032 70.1343 13.6046 70.1343ZM13.6046 69.001C12.5572 69.001 11.9556 67.916 11.9556 66.1274V66.1167C11.9556 64.3281 12.5572 63.2539 13.6046 63.2539C14.6466 63.2539 15.2535 64.3281 15.2535 66.1167V66.1274C15.2535 67.916 14.6466 69.001 13.6046 69.001Z" fill="#91929B"/>
<line y1="195.5" x2="666" y2="195.5" stroke="#F6F8FA"/>
<line y1="143.043" x2="666" y2="143.043" stroke="#F6F8FA"/>
<line y1="97.7858" x2="666" y2="97.7858" stroke="#F6F8FA"/>
<line y1="52.5286" x2="666" y2="52.5286" stroke="#F6F8FA"/>
<path d="M38 148C38 145.791 39.7909 144 42 144H50C52.2091 144 54 145.791 54 148V188C54 190.209 52.2091 192 50 192H42C39.7909 192 38 190.209 38 188V148Z" fill="#5E5E5E"/>
<path d="M62 90C62 87.7909 63.7909 86 66 86H74C76.2091 86 78 87.7909 78 90V188C78 190.209 76.2091 192 74 192H66C63.7909 192 62 190.209 62 188V90Z" fill="#5E5E5E"/>
<path d="M86 79C86 76.7909 87.7909 75 90 75H98C100.209 75 102 76.7909 102 79V188C102 190.209 100.209 192 98 192H90C87.7909 192 86 190.209 86 188V79Z" fill="#5E5E5E"/>
<path d="M110 137C110 134.791 111.791 133 114 133H122C124.209 133 126 134.791 126 137V188C126 190.209 124.209 192 122 192H114C111.791 192 110 190.209 110 188V137Z" fill="#5E5E5E"/>
<path d="M134 126C134 123.791 135.791 122 138 122H146C148.209 122 150 123.791 150 126V188C150 190.209 148.209 192 146 192H138C135.791 192 134 190.209 134 188V126Z" fill="#5E5E5E"/>
<path d="M158 171C158 168.791 159.791 167 162 167H170C172.209 167 174 168.791 174 171V188C174 190.209 172.209 192 170 192H162C159.791 192 158 190.209 158 188V171Z" fill="#5E5E5E"/>
<path d="M182 142C182 139.791 183.791 138 186 138H194C196.209 138 198 139.791 198 142V188C198 190.209 196.209 192 194 192H186C183.791 192 182 190.209 182 188V142Z" fill="#5E5E5E"/>
<path d="M206 166C206 163.791 207.791 162 210 162H218C220.209 162 222 163.791 222 166V188C222 190.209 220.209 192 218 192H210C207.791 192 206 190.209 206 188V166Z" fill="#5E5E5E"/>
<path d="M230 142C230 139.791 231.791 138 234 138H242C244.209 138 246 139.791 246 142V188C246 190.209 244.209 192 242 192H234C231.791 192 230 190.209 230 188V142Z" fill="#5E5E5E"/>
<path d="M254 108C254 105.791 255.791 104 258 104H266C268.209 104 270 105.791 270 108V188C270 190.209 268.209 192 266 192H258C255.791 192 254 190.209 254 188V108Z" fill="#5E5E5E"/>
<path d="M278 119C278 116.791 279.791 115 282 115H290C292.209 115 294 116.791 294 119V188C294 190.209 292.209 192 290 192H282C279.791 192 278 190.209 278 188V119Z" fill="#5E5E5E"/>
<path d="M302 98C302 95.7909 303.791 94 306 94H314C316.209 94 318 95.7909 318 98V188C318 190.209 316.209 192 314 192H306C303.791 192 302 190.209 302 188V98Z" fill="#5E5E5E"/>
<path d="M326 98C326 95.7909 327.791 94 330 94H338C340.209 94 342 95.7909 342 98V188C342 190.209 340.209 192 338 192H330C327.791 192 326 190.209 326 188V98Z" fill="#5E5E5E"/>
<path d="M350 72C350 69.7909 351.791 68 354 68H362C364.209 68 366 69.7909 366 72V188C366 190.209 364.209 192 362 192H354C351.791 192 350 190.209 350 188V72Z" fill="#5E5E5E"/>
<path d="M374 98C374 95.7909 375.791 94 378 94H386C388.209 94 390 95.7909 390 98V188C390 190.209 388.209 192 386 192H378C375.791 192 374 190.209 374 188V98Z" fill="#5E5E5E"/>
<path d="M398 104C398 101.791 399.791 100 402 100H410C412.209 100 414 101.791 414 104V188C414 190.209 412.209 192 410 192H402C399.791 192 398 190.209 398 188V104Z" fill="#D5DBE1"/>
<path d="M422 137C422 134.791 423.791 133 426 133H434C436.209 133 438 134.791 438 137V188C438 190.209 436.209 192 434 192H426C423.791 192 422 190.209 422 188V137Z" fill="#D5DBE1"/>
<path d="M446 156C446 153.791 447.791 152 450 152H458C460.209 152 462 153.791 462 156V188C462 190.209 460.209 192 458 192H450C447.791 192 446 190.209 446 188V156Z" fill="#D5DBE1"/>
<path d="M470 171C470 168.791 471.791 167 474 167H482C484.209 167 486 168.791 486 171V188C486 190.209 484.209 192 482 192H474C471.791 192 470 190.209 470 188V171Z" fill="#D5DBE1"/>
<path d="M494 156C494 153.791 495.791 152 498 152H506C508.209 152 510 153.791 510 156V188C510 190.209 508.209 192 506 192H498C495.791 192 494 190.209 494 188V156Z" fill="#D5DBE1"/>
<path d="M518 126C518 123.791 519.791 122 522 122H530C532.209 122 534 123.791 534 126V188C534 190.209 532.209 192 530 192H522C519.791 192 518 190.209 518 188V126Z" fill="#D5DBE1"/>
<path d="M542 104C542 101.791 543.791 100 546 100H554C556.209 100 558 101.791 558 104V188C558 190.209 556.209 192 554 192H546C543.791 192 542 190.209 542 188V104Z" fill="#D5DBE1"/>
<path d="M566 126C566 123.791 567.791 122 570 122H578C580.209 122 582 123.791 582 126V188C582 190.209 580.209 192 578 192H570C567.791 192 566 190.209 566 188V126Z" fill="#D5DBE1"/>
<path d="M590 126C590 123.791 591.791 122 594 122H602C604.209 122 606 123.791 606 126V188C606 190.209 604.209 192 602 192H594C591.791 192 590 190.209 590 188V126Z" fill="#D5DBE1"/>
<path d="M614 126C614 123.791 615.791 122 618 122H626C628.209 122 630 123.791 630 126V188C630 190.209 628.209 192 626 192H618C615.791 192 614 190.209 614 188V126Z" fill="#D5DBE1"/>
<path d="M638 126C638 123.791 639.791 122 642 122H650C652.209 122 654 123.791 654 126V188C654 190.209 652.209 192 650 192H642C639.791 192 638 190.209 638 188V126Z" fill="#D5DBE1"/>
<path d="M37.7227 218H39.1675V212.758H39.2105L41.3052 218H42.3257L44.4151 212.758H44.4634V218H45.9082V210.25H44.0337L41.8316 215.819H41.7993L39.5972 210.25H37.7227V218ZM48.9986 218.091C49.756 218.091 50.3683 217.731 50.6959 217.141H50.7281V218H52.2965V214.052C52.2965 212.892 51.3351 212.124 49.8473 212.124C48.3272 212.124 47.4142 212.887 47.3282 213.95L47.3229 214.015H48.7569L48.7677 213.966C48.8429 213.596 49.1974 213.322 49.7828 213.322C50.3951 213.322 50.7281 213.639 50.7281 214.149V214.503L49.3048 214.589C47.8761 214.681 47.065 215.293 47.065 216.34V216.351C47.065 217.366 47.8439 218.091 48.9986 218.091ZM48.6173 216.271V216.26C48.6173 215.852 48.9342 215.594 49.5411 215.556L50.7281 215.481V215.895C50.7281 216.496 50.2125 216.947 49.5089 216.947C48.9664 216.947 48.6173 216.695 48.6173 216.271ZM54.5221 219.896C55.8005 219.896 56.5739 219.461 57.0251 218.102L59.0016 212.242H57.3473L56.1281 216.743H56.0851L54.8713 212.242H53.1471L55.1828 218L55.113 218.188C54.9733 218.58 54.7155 218.714 54.2482 218.714C54.0173 218.714 53.8346 218.682 53.7218 218.661V219.826C53.9045 219.858 54.216 219.896 54.5221 219.896ZM64.3875 218H65.9935V210.25H64.3821L62.3787 211.641V213.08L64.3553 211.737H64.3875V218Z" fill="#27282D"/>
<path d="M308.118 218H309.563V212.758H309.606L311.7 218H312.721L314.81 212.758H314.859V218H316.303V210.25H314.429L312.227 215.819H312.194L309.992 210.25H308.118V218ZM319.394 218.091C320.151 218.091 320.763 217.731 321.091 217.141H321.123V218H322.692V214.052C322.692 212.892 321.73 212.124 320.242 212.124C318.722 212.124 317.809 212.887 317.723 213.95L317.718 214.015H319.152L319.163 213.966C319.238 213.596 319.593 213.322 320.178 213.322C320.79 213.322 321.123 213.639 321.123 214.149V214.503L319.7 214.589C318.271 214.681 317.46 215.293 317.46 216.34V216.351C317.46 217.366 318.239 218.091 319.394 218.091ZM319.012 216.271V216.26C319.012 215.852 319.329 215.594 319.936 215.556L321.123 215.481V215.895C321.123 216.496 320.608 216.947 319.904 216.947C319.362 216.947 319.012 216.695 319.012 216.271ZM324.917 219.896C326.196 219.896 326.969 219.461 327.42 218.102L329.397 212.242H327.742L326.523 216.743H326.48L325.266 212.242H323.542L325.578 218L325.508 218.188C325.368 218.58 325.111 218.714 324.643 218.714C324.412 218.714 324.23 218.682 324.117 218.661V219.826C324.3 219.858 324.611 219.896 324.917 219.896ZM334.783 218H336.389V210.25H334.777L332.774 211.641V213.08L334.75 211.737H334.783V218ZM341.445 218.134C343.217 218.134 344.442 217.033 344.442 215.411V215.4C344.442 213.939 343.378 212.881 341.907 212.881C341.123 212.881 340.483 213.198 340.161 213.719H340.129L340.317 211.539H343.975V210.25H339.028L338.673 214.799H340.086C340.177 214.638 340.301 214.487 340.457 214.369C340.72 214.16 341.058 214.042 341.456 214.042C342.293 214.042 342.89 214.616 342.895 215.433V215.443C342.895 216.271 342.299 216.851 341.45 216.851C340.704 216.851 340.161 216.399 340.048 215.814L340.038 215.776H338.539L338.544 215.857C338.641 217.151 339.758 218.134 341.445 218.134Z" fill="#27282D"/>
<path d="M623.574 218H625.019V212.758H625.062L627.157 218H628.177L630.266 212.758H630.315V218H631.76V210.25H629.885L627.683 215.819H627.651L625.449 210.25H623.574V218ZM634.85 218.091C635.607 218.091 636.22 217.731 636.547 217.141H636.58V218H638.148V214.052C638.148 212.892 637.186 212.124 635.699 212.124C634.179 212.124 633.266 212.887 633.18 213.95L633.174 214.015H634.608L634.619 213.966C634.694 213.596 635.049 213.322 635.634 213.322C636.246 213.322 636.58 213.639 636.58 214.149V214.503L635.156 214.589C633.727 214.681 632.916 215.293 632.916 216.34V216.351C632.916 217.366 633.695 218.091 634.85 218.091ZM634.469 216.271V216.26C634.469 215.852 634.786 215.594 635.392 215.556L636.58 215.481V215.895C636.58 216.496 636.064 216.947 635.36 216.947C634.818 216.947 634.469 216.695 634.469 216.271ZM640.374 219.896C641.652 219.896 642.425 219.461 642.876 218.102L644.853 212.242H643.199L641.979 216.743H641.937L640.723 212.242H638.999L641.034 218L640.964 218.188C640.825 218.58 640.567 218.714 640.1 218.714C639.869 218.714 639.686 218.682 639.573 218.661V219.826C639.756 219.858 640.067 219.896 640.374 219.896ZM651.184 218.134C652.994 218.134 654.197 217.2 654.197 215.814V215.803C654.197 214.75 653.445 214.084 652.296 213.977V213.945C653.204 213.757 653.913 213.128 653.913 212.162V212.151C653.913 210.932 652.839 210.115 651.168 210.115C649.541 210.115 648.45 210.996 648.343 212.339L648.338 212.403H649.825L649.831 212.355C649.895 211.753 650.411 211.361 651.168 211.361C651.931 211.361 652.377 211.737 652.377 212.366V212.376C652.377 213.005 651.85 213.435 651.039 213.435H650.174V214.589H651.061C651.995 214.589 652.548 214.998 652.548 215.739V215.75C652.548 216.383 652.011 216.829 651.179 216.829C650.341 216.829 649.793 216.416 649.723 215.862L649.713 215.803H648.166L648.171 215.873C648.278 217.21 649.428 218.134 651.184 218.134ZM658.598 218.134C660.564 218.134 661.757 216.593 661.757 214.127V214.117C661.757 211.651 660.564 210.115 658.598 210.115C656.633 210.115 655.44 211.651 655.44 214.117V214.127C655.44 216.593 656.633 218.134 658.598 218.134ZM658.598 216.834C657.632 216.834 657.078 215.83 657.078 214.127V214.117C657.078 212.414 657.632 211.415 658.598 211.415C659.565 211.415 660.118 212.414 660.118 214.117V214.127C660.118 215.83 659.565 216.834 658.598 216.834Z" fill="#27282D"/>
<rect y="10" width="8" height="8" rx="2" fill="#5E5E5E"/>
<path d="M17.0928 18.1343C18.9673 18.1343 20.3262 16.958 20.4766 15.3091L20.4819 15.25H18.9028L18.8921 15.3037C18.6826 16.2222 18.0273 16.7593 17.0928 16.7593C15.8521 16.7593 15.0571 15.7495 15.0571 14.1167V14.1113C15.0571 12.4893 15.8521 11.4902 17.0928 11.4902C18.0596 11.4902 18.6934 12.0488 18.876 12.9028L18.8975 12.9941H20.4766L20.4712 12.9458C20.3208 11.3022 18.9727 10.1152 17.0928 10.1152C14.8315 10.1152 13.4028 11.6191 13.4028 14.1167V14.1221C13.4028 16.6196 14.8262 18.1343 17.0928 18.1343ZM24.335 18.1182C26.0753 18.1182 27.1871 17.001 27.1871 15.1211V15.1104C27.1871 13.2466 26.0538 12.124 24.3297 12.124C22.6109 12.124 21.483 13.2573 21.483 15.1104V15.1211C21.483 16.9956 22.5841 18.1182 24.335 18.1182ZM24.3404 16.8882C23.567 16.8882 23.0782 16.249 23.0782 15.1211V15.1104C23.0782 13.9985 23.5723 13.354 24.3297 13.354C25.0924 13.354 25.5919 13.9985 25.5919 15.1104V15.1211C25.5919 16.2437 25.1031 16.8882 24.3404 16.8882ZM28.3385 18H29.9069V14.5249C29.9069 13.875 30.3097 13.4238 30.9059 13.4238C31.486 13.4238 31.8351 13.7891 31.8351 14.4067V18H33.3444V14.498C33.3444 13.8589 33.7365 13.4238 34.3327 13.4238C34.9396 13.4238 35.2726 13.7891 35.2726 14.4551V18H36.841V14.063C36.841 12.9028 36.0836 12.124 34.9557 12.124C34.1124 12.124 33.4249 12.5859 33.1671 13.311H33.1349C32.9415 12.5537 32.3561 12.124 31.5504 12.124C30.777 12.124 30.1754 12.5537 29.9391 13.209H29.9069V12.2422H28.3385V18ZM38.175 19.8799H39.7434V17.0171H39.7756C40.0871 17.6992 40.737 18.1182 41.5588 18.1182C42.9983 18.1182 43.8899 16.9902 43.8899 15.1211V15.1157C43.8899 13.2412 42.9983 12.124 41.5373 12.124C40.7209 12.124 40.0925 12.5483 39.781 13.2466H39.7434V12.2422H38.175V19.8799ZM41.0217 16.8184C40.259 16.8184 39.738 16.1631 39.738 15.1265V15.1211C39.738 14.0791 40.259 13.4238 41.0217 13.4238C41.8005 13.4238 42.2946 14.063 42.2946 15.1157V15.1211C42.2946 16.1685 41.8005 16.8184 41.0217 16.8184ZM45.0843 18H46.6526V10.2495H45.0843V18ZM50.6722 18.1182C52.3158 18.1182 53.1107 17.146 53.2879 16.2974L53.3041 16.2383H51.8646L51.8539 16.2705C51.7411 16.5928 51.349 16.9473 50.7045 16.9473C49.9042 16.9473 49.4046 16.4102 49.3885 15.4917H53.3524V15.0083C53.3524 13.2681 52.2943 12.124 50.6078 12.124C48.9212 12.124 47.8417 13.2949 47.8417 15.1265V15.1318C47.8417 16.9741 48.9105 18.1182 50.6722 18.1182ZM50.6346 13.2949C51.2845 13.2949 51.7518 13.7085 51.8485 14.5034H49.4046C49.5067 13.7246 49.9901 13.2949 50.6346 13.2949ZM56.7919 18.1182C57.1196 18.1182 57.372 18.0859 57.5492 18.0591V16.9097C57.4526 16.9204 57.3505 16.9365 57.2109 16.9365C56.7382 16.9365 56.4965 16.7539 56.4965 16.2168V13.4238H57.5492V12.2422H56.4965V10.835H54.912V12.2422H54.1117V13.4238H54.912V16.3887C54.912 17.624 55.5136 18.1182 56.7919 18.1182ZM61.2896 18.1182C62.9331 18.1182 63.728 17.146 63.9053 16.2974L63.9214 16.2383H62.4819L62.4712 16.2705C62.3584 16.5928 61.9663 16.9473 61.3218 16.9473C60.5215 16.9473 60.022 16.4102 60.0059 15.4917H63.9697V15.0083C63.9697 13.2681 62.9116 12.124 61.2251 12.124C59.5386 12.124 58.459 13.2949 58.459 15.1265V15.1318C58.459 16.9741 59.5278 18.1182 61.2896 18.1182ZM61.252 13.2949C61.9019 13.2949 62.3691 13.7085 62.4658 14.5034H60.022C60.124 13.7246 60.6074 13.2949 61.252 13.2949ZM67.2535 18.1182C68.086 18.1182 68.7198 17.6992 69.026 17.0171H69.0582V18H70.6265V10.2495H69.0582V13.2412H69.026C68.7144 12.543 68.0699 12.124 67.2535 12.124C65.8033 12.124 64.9117 13.2412 64.9117 15.1157V15.1211C64.9117 16.9902 65.8033 18.1182 67.2535 18.1182ZM67.7799 16.8184C66.9957 16.8184 66.5069 16.1685 66.5069 15.1211V15.1157C66.5069 14.063 67.001 13.4238 67.7799 13.4238C68.5372 13.4238 69.0635 14.0791 69.0635 15.1157V15.1211C69.0635 16.1631 68.5426 16.8184 67.7799 16.8184Z" fill="#27282D"/>
<rect x="77.25" y="10.25" width="7.5" height="7.5" rx="1.75" fill="#EBEEF1" stroke="#D5DBE1" stroke-width="0.5"/>
<path d="M90.6445 18H94.0767C95.731 18 96.7568 17.146 96.7568 15.7817V15.771C96.7568 14.7505 95.978 13.9824 94.8984 13.9019V13.8696C95.7471 13.7568 96.3862 13.0371 96.3862 12.1938V12.1831C96.3862 10.9961 95.4731 10.2495 94.0176 10.2495H90.6445V18ZM93.5986 11.4526C94.3506 11.4526 94.791 11.8071 94.791 12.4194V12.4302C94.791 13.0747 94.2969 13.4561 93.4321 13.4561H92.2666V11.4526H93.5986ZM93.6255 14.5571C94.5815 14.5571 95.1025 14.9438 95.1025 15.6636V15.6743C95.1025 16.4048 94.5923 16.7915 93.6631 16.7915H92.2666V14.5571H93.6255ZM100.529 18.1182C102.27 18.1182 103.381 17.001 103.381 15.1211V15.1104C103.381 13.2466 102.248 12.124 100.524 12.124C98.8052 12.124 97.6773 13.2573 97.6773 15.1104V15.1211C97.6773 16.9956 98.7784 18.1182 100.529 18.1182ZM100.535 16.8882C99.7613 16.8882 99.2725 16.249 99.2725 15.1211V15.1104C99.2725 13.9985 99.7667 13.354 100.524 13.354C101.287 13.354 101.786 13.9985 101.786 15.1104V15.1211C101.786 16.2437 101.297 16.8882 100.535 16.8882ZM107.175 18.1182C108.916 18.1182 110.027 17.001 110.027 15.1211V15.1104C110.027 13.2466 108.894 12.124 107.17 12.124C105.451 12.124 104.323 13.2573 104.323 15.1104V15.1211C104.323 16.9956 105.424 18.1182 107.175 18.1182ZM107.181 16.8882C106.407 16.8882 105.919 16.249 105.919 15.1211V15.1104C105.919 13.9985 106.413 13.354 107.17 13.354C107.933 13.354 108.432 13.9985 108.432 15.1104V15.1211C108.432 16.2437 107.943 16.8882 107.181 16.8882ZM111.233 18H112.801V16.0933L113.204 15.6475L114.853 18H116.663L114.38 14.7183L116.555 12.2422H114.778L112.833 14.5464H112.801V10.2495H111.233V18ZM119.791 18.1182C121.434 18.1182 122.229 17.146 122.407 16.2974L122.423 16.2383H120.983L120.972 16.2705C120.86 16.5928 120.468 16.9473 119.823 16.9473C119.023 16.9473 118.523 16.4102 118.507 15.4917H122.471V15.0083C122.471 13.2681 121.413 12.124 119.726 12.124C118.04 12.124 116.96 13.2949 116.96 15.1265V15.1318C116.96 16.9741 118.029 18.1182 119.791 18.1182ZM119.753 13.2949C120.403 13.2949 120.87 13.7085 120.967 14.5034H118.523C118.625 13.7246 119.109 13.2949 119.753 13.2949ZM125.755 18.1182C126.587 18.1182 127.221 17.6992 127.527 17.0171H127.559V18H129.128V10.2495H127.559V13.2412H127.527C127.216 12.543 126.571 12.124 125.755 12.124C124.305 12.124 123.413 13.2412 123.413 15.1157V15.1211C123.413 16.9902 124.305 18.1182 125.755 18.1182ZM126.281 16.8184C125.497 16.8184 125.008 16.1685 125.008 15.1211V15.1157C125.008 14.063 125.502 13.4238 126.281 13.4238C127.038 13.4238 127.565 14.0791 127.565 15.1157V15.1211C127.565 16.1631 127.044 16.8184 126.281 16.8184Z" fill="#27282D"/>
</svg>
