<svg width="16" height="17" viewBox="0 0 16 17" fill="none" xmlns="http://www.w3.org/2000/svg">
<g clip-path="url(#clip0_782_22320)">
<path fill-rule="evenodd" clip-rule="evenodd" d="M3.33137 12.3801C3.04737 12.0211 2.70237 11.2871 2.08837 10.3961C1.74037 9.89207 0.877374 8.94307 0.620374 8.46107C0.397373 8.03507 0.421373 7.84407 0.474373 7.49107C0.568373 6.86307 1.21237 6.37407 1.89937 6.44007C2.41837 6.48907 2.85837 6.83207 3.25437 7.15607C3.49337 7.35107 3.78737 7.73007 3.96437 7.94407C4.12737 8.14007 4.16737 8.22107 4.34137 8.45307C4.57137 8.76007 4.64337 8.91207 4.55537 8.57407C4.48437 8.07807 4.36837 7.23107 4.20037 6.48207C4.07237 5.91407 4.04137 5.82507 3.91937 5.38907C3.79037 4.92507 3.72437 4.60007 3.60337 4.10807C3.51937 3.76007 3.36837 3.04907 3.32737 2.64907C3.27037 2.10207 3.24037 1.21007 3.59137 0.800071C3.86637 0.479071 4.49737 0.382071 4.88837 0.580071C5.40037 0.839071 5.69137 1.58307 5.82437 1.88007C6.06337 2.41407 6.21137 3.03107 6.34037 3.84107C6.50437 4.87207 6.80637 6.30307 6.81637 6.60407C6.84037 6.23507 6.74837 5.45807 6.81237 5.10407C6.87037 4.78307 7.14037 4.41007 7.47837 4.30907C7.76437 4.22407 8.09937 4.19307 8.39437 4.25407C8.70737 4.31807 9.03737 4.54207 9.16037 4.75307C9.52237 5.37707 9.52937 6.65207 9.54437 6.58407C9.63037 6.20807 9.61537 5.35507 9.82837 5.00007C9.96837 4.76607 10.3254 4.55507 10.5154 4.52107C10.8094 4.46907 11.1704 4.45307 11.4794 4.51307C11.7284 4.56207 12.0654 4.85807 12.1564 5.00007C12.3744 5.34407 12.4984 6.31707 12.5354 6.65807C12.5504 6.79907 12.6094 6.26607 12.8284 5.92207C13.2344 5.28307 14.6714 5.15907 14.7264 6.56107C14.7514 7.21507 14.7464 7.18507 14.7464 7.62507C14.7464 8.14207 14.7344 8.45307 14.7064 8.82707C14.6754 9.22707 14.5894 10.1311 14.4644 10.5691C14.3784 10.8701 14.0934 11.5471 13.8124 11.9531C13.8124 11.9531 12.7384 13.2031 12.6214 13.7661C12.5034 14.3281 12.5424 14.3321 12.5194 14.7311C12.4964 15.1291 12.6404 15.6531 12.6404 15.6531C12.6404 15.6531 11.8384 15.7571 11.4064 15.6881C11.0154 15.6251 10.5314 14.8471 10.4064 14.6091C10.2344 14.2811 9.86737 14.3441 9.72437 14.5861C9.49937 14.9691 9.01537 15.6561 8.67337 15.6991C8.00537 15.7831 6.61937 15.7301 5.53437 15.7191C5.53437 15.7191 5.71937 14.7081 5.30737 14.3611C5.00237 14.1021 4.47737 13.5771 4.16337 13.3011L3.33137 12.3801Z" fill="white"/>
<path fill-rule="evenodd" clip-rule="evenodd" d="M3.33137 12.3801C3.04737 12.0211 2.70237 11.2871 2.08837 10.3961C1.74037 9.89207 0.877374 8.94307 0.620374 8.46107C0.397373 8.03507 0.421373 7.84407 0.474373 7.49107C0.568373 6.86307 1.21237 6.37407 1.89937 6.44007C2.41837 6.48907 2.85837 6.83207 3.25437 7.15607C3.49337 7.35107 3.78737 7.73007 3.96437 7.94407C4.12737 8.14007 4.16737 8.22107 4.34137 8.45307C4.57137 8.76007 4.64337 8.91207 4.55537 8.57407C4.48437 8.07807 4.36837 7.23107 4.20037 6.48207C4.07237 5.91407 4.04137 5.82507 3.91937 5.38907C3.79037 4.92507 3.72437 4.60007 3.60337 4.10807C3.51937 3.76007 3.36837 3.04907 3.32737 2.64907C3.27037 2.10207 3.24037 1.21007 3.59137 0.800071C3.86637 0.479071 4.49737 0.382071 4.88837 0.580071C5.40037 0.839071 5.69137 1.58307 5.82437 1.88007C6.06337 2.41407 6.21137 3.03107 6.34037 3.84107C6.50437 4.87207 6.80637 6.30307 6.81637 6.60407C6.84037 6.23507 6.74837 5.45807 6.81237 5.10407C6.87037 4.78307 7.14037 4.41007 7.47837 4.30907C7.76437 4.22407 8.09937 4.19307 8.39437 4.25407C8.70737 4.31807 9.03737 4.54207 9.16037 4.75307C9.52237 5.37707 9.52937 6.65207 9.54437 6.58407C9.63037 6.20807 9.61537 5.35507 9.82837 5.00007C9.96837 4.76607 10.3254 4.55507 10.5154 4.52107C10.8094 4.46907 11.1704 4.45307 11.4794 4.51307C11.7284 4.56207 12.0654 4.85807 12.1564 5.00007C12.3744 5.34407 12.4984 6.31707 12.5354 6.65807C12.5504 6.79907 12.6094 6.26607 12.8284 5.92207C13.2344 5.28307 14.6714 5.15907 14.7264 6.56107C14.7514 7.21507 14.7464 7.18507 14.7464 7.62507C14.7464 8.14207 14.7344 8.45307 14.7064 8.82707C14.6754 9.22707 14.5894 10.1311 14.4644 10.5691C14.3784 10.8701 14.0934 11.5471 13.8124 11.9531C13.8124 11.9531 12.7384 13.2031 12.6214 13.7661C12.5034 14.3281 12.5424 14.3321 12.5194 14.7311C12.4964 15.1291 12.6404 15.6531 12.6404 15.6531C12.6404 15.6531 11.8384 15.7571 11.4064 15.6881C11.0154 15.6251 10.5314 14.8471 10.4064 14.6091C10.2344 14.2811 9.86737 14.3441 9.72437 14.5861C9.49937 14.9691 9.01537 15.6561 8.67337 15.6991C8.00537 15.7831 6.61937 15.7301 5.53437 15.7191C5.53437 15.7191 5.71937 14.7081 5.30737 14.3611C5.00237 14.1021 4.47737 13.5771 4.16337 13.3011L3.33137 12.3801Z" stroke="black" stroke-width="0.75" stroke-linecap="round" stroke-linejoin="round"/>
<path d="M11.5664 12.7344V9.27539" stroke="black" stroke-width="0.75" stroke-linecap="round"/>
<path d="M9.55116 12.7464L9.53516 9.27344" stroke="black" stroke-width="0.75" stroke-linecap="round"/>
<path d="M7.55469 9.30469L7.57569 12.7307" stroke="black" stroke-width="0.75" stroke-linecap="round"/>
</g>
<defs>
<clipPath id="clip0_782_22320">
<rect width="16" height="17" fill="white"/>
</clipPath>
</defs>
</svg>
