<svg width="129" height="36" viewBox="0 0 129 36" fill="none" xmlns="http://www.w3.org/2000/svg">
<path d="M33.0813 0H2.91872C1.30667 0 0 1.30667 0 2.91872V33.0813C0 34.6933 1.30667 36 2.91872 36H33.0813C34.6933 36 36 34.6933 36 33.0813V2.91872C36 1.30667 34.6933 0 33.0813 0ZM33.9678 20.0636L20.0636 33.9678C18.9236 35.1079 17.0755 35.1079 15.9364 33.9678L2.03218 20.0636C0.892088 18.9236 0.892088 17.0755 2.03218 15.9364L15.9364 2.03218C17.0765 0.892088 18.9245 0.892088 20.0636 2.03218L33.9678 15.9364C35.1079 17.0765 35.1079 18.9245 33.9678 20.0636Z" fill="#FFF5E5"/>
<path d="M24.0865 8.99512H11.9138C10.3017 8.99512 8.99506 10.3018 8.99506 11.9138V24.0866C8.99506 25.6986 10.3017 27.0053 11.9138 27.0053H24.0865C25.6986 27.0053 27.0052 25.6986 27.0052 24.0866V11.9138C27.0052 10.3018 25.6986 8.99512 24.0865 8.99512ZM24.9573 20.0639L20.0638 24.9574C18.9237 26.0975 17.0757 26.0975 15.9365 24.9574L11.043 20.0639C9.90288 18.9238 9.90288 17.0757 11.043 15.9366L15.9365 11.043C17.0766 9.90294 18.9246 9.90294 20.0638 11.043L24.9573 15.9366C26.0974 17.0767 26.0974 18.9247 24.9573 20.0639Z" fill="#FFF5E5"/>
<path d="M68.7511 15.5703C68.7511 18.9036 66.1707 20.6667 62.3002 20.6667H55.4408V25.5271H52V10.4739H62.3002C66.1707 10.4739 68.7511 12.2801 68.7511 15.5703ZM65.2451 15.5914C65.2451 13.8715 63.9549 13.3554 62.0192 13.3554H55.4388V17.8283H62.0192C63.9549 17.8283 65.2451 17.3122 65.2451 15.5923V15.5914Z" fill="#FFF5E5"/>
<path d="M70.8787 18C70.8787 12.9679 74.5775 10 80.448 10C86.3185 10 90.0173 12.9679 90.0173 18C90.0173 23.0321 86.3185 26 80.448 26C74.5775 26 70.8787 23.0321 70.8787 18ZM86.5132 18C86.5132 14.7741 84.1688 12.9679 80.4489 12.9679C76.729 12.9679 74.3847 14.7741 74.3847 18C74.3847 21.2259 76.707 23.0321 80.4489 23.0321C84.1909 23.0321 86.5132 21.2259 86.5132 18Z" fill="#FFF5E5"/>
<path d="M109.521 20.9679C109.521 23.9357 106.704 26 101.372 26C97.5656 26 94.4692 24.9247 92.168 22.9679L94.1459 20.6235C95.9953 22.3223 98.3819 23.1185 101.457 23.1185C104.532 23.1185 106.059 22.5381 106.059 21.2902C106.059 20.0422 104.51 19.6988 101.049 19.3976C96.7473 19.0321 92.7483 18.0854 92.7483 14.8604C92.7483 11.6355 96.1027 10 100.748 10C104.038 10 106.877 10.8173 108.791 12.3012L106.898 14.6878C105.242 13.4187 103.199 12.9026 100.747 12.8815C98.7042 12.8604 96.2102 13.2259 96.2102 14.6014C96.2102 15.8916 98.3608 16.0211 101.35 16.2571C106.145 16.6446 109.521 17.6547 109.521 20.9669V20.9679Z" fill="#FFF5E5"/>
<path d="M128.251 22.6446V25.5262H112.747V10.4739H128.036V13.3554H116.166V16.4518H126.079V19.3334H116.166V22.6446H128.251Z" fill="#FFF5E5"/>
</svg>
