<svg width="128" height="32" viewBox="0 0 128 32" fill="none" xmlns="http://www.w3.org/2000/svg">
<path d="M29.4056 0H2.59442C1.16148 0 0 1.16148 0 2.59442V29.4056C0 30.8385 1.16148 32 2.59442 32H29.4056C30.8385 32 32 30.8385 32 29.4056V2.59442C32 1.16148 30.8385 0 29.4056 0ZM30.1936 17.8344L17.8344 30.1936C16.8209 31.207 15.1782 31.207 14.1656 30.1936L1.80639 17.8344C0.792967 16.8209 0.792967 15.1782 1.80639 14.1656L14.1656 1.80639C15.1791 0.792967 16.8218 0.792967 17.8344 1.80639L30.1936 14.1656C31.207 15.1791 31.207 16.8218 30.1936 17.8344Z" fill="#F26552"/>
<path d="M21.4101 7.99548H10.5899C9.157 7.99548 7.99551 9.15697 7.99551 10.5899V21.4101C7.99551 22.843 9.157 24.0045 10.5899 24.0045H21.4101C22.8431 24.0045 24.0046 22.843 24.0046 21.4101V10.5899C24.0046 9.15697 22.8431 7.99548 21.4101 7.99548ZM22.1842 17.8344L17.8344 22.1842C16.821 23.1976 15.1783 23.1976 14.1657 22.1842L9.81588 17.8344C8.80247 16.8209 8.80247 15.1783 9.81588 14.1657L14.1657 9.81585C15.1791 8.80243 16.8218 8.80243 17.8344 9.81585L22.1842 14.1657C23.1976 15.1791 23.1976 16.8218 22.1842 17.8344Z" fill="#F26552"/>
<path d="M62.3541 13.3377C62.3541 16.9901 59.5269 18.9218 55.286 18.9218H47.77V24.2474H44V7.7536H55.286C59.5269 7.7536 62.3541 9.73269 62.3541 13.3377ZM58.5126 13.3608C58.5126 11.4763 57.099 10.9109 54.978 10.9109H47.7679V15.8118H54.978C57.099 15.8118 58.5126 15.2464 58.5126 13.3619V13.3608Z" fill="#F26552"/>
<path d="M64.6853 16C64.6853 10.4863 68.7381 7.23444 75.1704 7.23444C81.6027 7.23444 85.6555 10.4863 85.6555 16C85.6555 21.5137 81.6027 24.7656 75.1704 24.7656C68.7381 24.7656 64.6853 21.5137 64.6853 16ZM81.8161 16C81.8161 12.4654 79.2473 10.4863 75.1715 10.4863C71.0956 10.4863 68.5268 12.4654 68.5268 16C68.5268 19.5346 71.0714 21.5137 75.1715 21.5137C79.2715 21.5137 81.8161 19.5346 81.8161 16Z" fill="#F26552"/>
<path d="M107.026 19.2519C107.026 22.5038 103.939 24.7656 98.0965 24.7656C93.926 24.7656 90.5333 23.5874 88.0119 21.4433L90.1791 18.8746C92.2055 20.736 94.8205 21.6083 98.1901 21.6083C101.56 21.6083 103.232 20.9724 103.232 19.6051C103.232 18.2377 101.536 17.8614 97.7423 17.5314C93.0295 17.1309 88.6478 16.0936 88.6478 12.56C88.6478 9.02644 92.3232 7.23444 97.4134 7.23444C101.018 7.23444 104.128 8.12991 106.225 9.75586L104.152 12.3708C102.337 10.9803 100.099 10.4149 97.4123 10.3917C95.1736 10.3686 92.4409 10.769 92.4409 12.2762C92.4409 13.6899 94.7974 13.8317 98.0724 14.0903C103.326 14.5149 107.026 15.6217 107.026 19.2509V19.2519Z" fill="#F26552"/>
<path d="M127.548 21.0891V24.2464H110.561V7.7536H127.313V10.9109H114.306V14.3036H125.169V17.4609H114.306V21.0891H127.548Z" fill="#F26552"/>
</svg>
