<svg width="58" height="24" viewBox="0 0 58 24" fill="none" xmlns="http://www.w3.org/2000/svg">
<path fill-rule="evenodd" clip-rule="evenodd" d="M57.9998 12.4003C57.9998 8.29882 56.0021 5.0625 52.1837 5.0625C48.3493 5.0625 46.0293 8.29881 46.0293 12.3682C46.0293 17.1907 48.7682 19.6259 52.6993 19.6259C54.6165 19.6259 56.0665 19.1933 57.1621 18.5845V15.3803C56.0665 15.925 54.8098 16.2614 53.2148 16.2614C51.6521 16.2614 50.2665 15.7167 50.0893 13.8262H57.9676C57.9676 13.6179 57.9998 12.7848 57.9998 12.4003ZM50.041 10.8783C50.041 9.06784 51.1526 8.31484 52.1676 8.31484C53.1504 8.31484 54.1976 9.06784 54.1976 10.8783H50.041Z" fill="#596171"/>
<path fill-rule="evenodd" clip-rule="evenodd" d="M39.8106 5.0625C38.2317 5.0625 37.2167 5.79948 36.6528 6.31217L36.4434 5.31884H32.8989V23.9998L36.9267 23.1506L36.9428 18.6166C37.5228 19.0331 38.3767 19.6259 39.7945 19.6259C42.6784 19.6259 45.3045 17.3188 45.3045 12.2401C45.2884 7.59388 42.63 5.0625 39.8106 5.0625ZM38.8439 16.1012C37.8934 16.1012 37.3295 15.7648 36.9428 15.3482L36.9267 9.40429C37.3456 8.93967 37.9256 8.61924 38.8439 8.61924C40.31 8.61924 41.325 10.2534 41.325 12.3522C41.325 14.4991 40.3261 16.1012 38.8439 16.1012Z" fill="#596171"/>
<path fill-rule="evenodd" clip-rule="evenodd" d="M27.3564 4.11749L31.4003 3.25234V0L27.3564 0.849132V4.11749Z" fill="#596171"/>
<path d="M31.4003 5.33496H27.3564V19.3537H31.4003V5.33496Z" fill="#596171"/>
<path fill-rule="evenodd" clip-rule="evenodd" d="M23.0229 6.52062L22.7652 5.33504H19.2852V19.3537H23.3129V9.85306C24.2635 8.61942 25.8746 8.84372 26.374 9.01995V5.33504C25.8585 5.14278 23.9735 4.79031 23.0229 6.52062Z" fill="#596171"/>
<path fill-rule="evenodd" clip-rule="evenodd" d="M14.9672 1.8584L11.0361 2.69151L11.02 15.5246C11.02 17.8958 12.8084 19.6421 15.1928 19.6421C16.5139 19.6421 17.4806 19.4018 18.0122 19.1134V15.8611C17.4967 16.0693 14.9511 16.8063 14.9511 14.4352V8.74758H18.0122V5.33503H14.9511L14.9672 1.8584Z" fill="#596171"/>
<path fill-rule="evenodd" clip-rule="evenodd" d="M4.07611 9.40429C4.07611 8.77946 4.59167 8.53914 5.44556 8.53914C6.67 8.53914 8.21667 8.90763 9.44111 9.5645V5.79948C8.10389 5.27078 6.78278 5.0625 5.44556 5.0625C2.175 5.0625 0 6.76076 0 9.59655C0 14.0184 6.12222 13.3135 6.12222 15.22C6.12222 15.957 5.47778 16.1973 4.57556 16.1973C3.23833 16.1973 1.53056 15.6526 0.177222 14.9156V18.7287C1.67556 19.3696 3.19 19.6419 4.57556 19.6419C7.92667 19.6419 10.2306 17.9917 10.2306 15.1239C10.2144 10.3495 4.07611 11.1987 4.07611 9.40429Z" fill="#596171"/>
</svg>
