<svg width="58" height="24" viewBox="0 0 58 24" fill="none" xmlns="http://www.w3.org/2000/svg">
<path fill-rule="evenodd" clip-rule="evenodd" d="M57.9999 12.4005C57.9999 8.29906 56.0022 5.06274 52.1838 5.06274C48.3494 5.06274 46.0294 8.29906 46.0294 12.3685C46.0294 17.1909 48.7683 19.6262 52.6994 19.6262C54.6166 19.6262 56.0666 19.1936 57.1622 18.5848V15.3805C56.0666 15.9252 54.8099 16.2617 53.2149 16.2617C51.6522 16.2617 50.2666 15.717 50.0894 13.8264H57.9677C57.9677 13.6182 57.9999 12.785 57.9999 12.4005ZM50.0411 10.8785C50.0411 9.06809 51.1527 8.31508 52.1677 8.31508C53.1505 8.31508 54.1977 9.06809 54.1977 10.8785H50.0411Z" fill="white"/>
<path fill-rule="evenodd" clip-rule="evenodd" d="M39.8106 5.06274C38.2317 5.06274 37.2167 5.79973 36.6528 6.31241L36.4433 5.31909H32.8989V24L36.9267 23.1509L36.9428 18.6168C37.5228 19.0334 38.3767 19.6262 39.7944 19.6262C42.6783 19.6262 45.3044 17.3191 45.3044 12.2403C45.2883 7.59412 42.63 5.06274 39.8106 5.06274ZM38.8439 16.1015C37.8933 16.1015 37.3294 15.765 36.9428 15.3485L36.9267 9.40453C37.3456 8.93991 37.9256 8.61949 38.8439 8.61949C40.31 8.61949 41.325 10.2537 41.325 12.3525C41.325 14.4993 40.3261 16.1015 38.8439 16.1015Z" fill="white"/>
<path fill-rule="evenodd" clip-rule="evenodd" d="M27.3566 4.11749L31.4005 3.25234V0L27.3566 0.849132V4.11749Z" fill="white"/>
<path d="M31.4005 5.33521H27.3566V19.3539H31.4005V5.33521Z" fill="white"/>
<path fill-rule="evenodd" clip-rule="evenodd" d="M23.0228 6.52062L22.765 5.33504H19.285V19.3537H23.3128V9.85306C24.2633 8.61942 25.8744 8.84372 26.3739 9.01995V5.33504C25.8583 5.14278 23.9733 4.79031 23.0228 6.52062Z" fill="white"/>
<path fill-rule="evenodd" clip-rule="evenodd" d="M14.9672 1.8584L11.0361 2.69151L11.02 15.5246C11.02 17.8958 12.8083 19.6421 15.1927 19.6421C16.5138 19.6421 17.4805 19.4018 18.0122 19.1134V15.8611C17.4966 16.0693 14.9511 16.8063 14.9511 14.4352V8.74758H18.0122V5.33503H14.9511L14.9672 1.8584Z" fill="white"/>
<path fill-rule="evenodd" clip-rule="evenodd" d="M4.07611 9.40453C4.07611 8.7797 4.59167 8.53938 5.44556 8.53938C6.67 8.53938 8.21667 8.90787 9.44111 9.56475V5.79973C8.10389 5.27102 6.78278 5.06274 5.44556 5.06274C2.175 5.06274 0 6.76101 0 9.59679C0 14.0187 6.12222 13.3137 6.12222 15.2203C6.12222 15.9573 5.47778 16.1976 4.57556 16.1976C3.23833 16.1976 1.53056 15.6529 0.177222 14.9159V18.729C1.67556 19.3698 3.19 19.6422 4.57556 19.6422C7.92667 19.6422 10.2306 17.992 10.2306 15.1242C10.2144 10.3498 4.07611 11.1989 4.07611 9.40453Z" fill="white"/>
</svg>
