<svg width="22" height="24" viewBox="0 0 22 24" fill="none" xmlns="http://www.w3.org/2000/svg">
<path fill-rule="evenodd" clip-rule="evenodd" d="M21.5 3V24L17.75 21L14.375 24L11 21L7.625 24L4.25 21L0.5 24V3C0.5 1.34315 1.84315 0 3.5 0H18.5C20.1569 0 21.5 1.34315 21.5 3ZM5 9C4.17157 9 3.5 9.67157 3.5 10.5C3.5 11.3284 4.17157 12 5 12H17C17.8284 12 18.5 11.3284 18.5 10.5C18.5 9.67157 17.8284 9 17 9H5ZM9.5 13.5C8.67157 13.5 8 14.1716 8 15C8 15.8284 8.67157 16.5 9.5 16.5H17C17.8284 16.5 18.5 15.8284 18.5 15C18.5 14.1716 17.8284 13.5 17 13.5H9.5ZM5 4.5C4.17157 4.5 3.5 5.17157 3.5 6C3.5 6.82843 4.17157 7.5 5 7.5H17C17.8284 7.5 18.5 6.82843 18.5 6C18.5 5.17157 17.8284 4.5 17 4.5H5Z" fill="#3A713E"/>
</svg>
