<svg width="20" height="20" viewBox="0 0 20 20" fill="none" xmlns="http://www.w3.org/2000/svg">
<path d="M8 8H3.23607C1.74931 8 0.782315 9.56463 1.44722 10.8944L4.94722 17.8944C5.286 18.572 5.97853 19 6.73607 19H10.7538C10.9173 19 11.0802 18.9799 11.2389 18.9403L15 18M8 8V3C8 1.89543 8.89543 1 10 1H10.0955C10.595 1 11 1.40497 11 1.90453C11 2.61883 11.2114 3.31715 11.6077 3.91149L15 9V18M8 8H10M15 18H17C18.1046 18 19 17.1046 19 16V10C19 8.89543 18.1046 8 17 8H14.5" stroke="transparent" stroke-width="2" stroke-linecap="round" stroke-linejoin="round" fill="#3A713E"/>
</svg>
