<svg width="20" height="16" viewBox="0 0 20 16" fill="none" xmlns="http://www.w3.org/2000/svg">
<path d="M11 12H12H11ZM11 4H10V4L11 4ZM15.2929 3.29289L16 2.58579L16 2.58579L15.2929 3.29289ZM18.7071 6.70711L19.4142 6V6L18.7071 6.70711ZM2 2H10V0H2V2ZM10 2V12H12V2H10ZM2 12V2H0V12H2ZM3 12H2V14H3V12ZM10 12H7V14H10V12ZM0 12C0 13.1046 0.89543 14 2 14V12H0ZM10 12V14C11.1046 14 12 13.1046 12 12H10ZM10 2H10H12C12 0.89543 11.1046 0 10 0V2ZM2 0C0.895431 0 0 0.89543 0 2H2V2V0ZM12 12L12 4L10 4L10 12H12ZM12 4H14.5858V2H12V4ZM18 7.41421V12H20V7.41421H18ZM14.5858 4L18 7.41421L19.4142 6L16 2.58579L14.5858 4ZM13 12H12V14H13V12ZM18 12H17V14H18V12ZM20 7.41421C20 6.88378 19.7893 6.37507 19.4142 6L18 7.41421L18 7.41421H20ZM14.5858 4L14.5858 4L16 2.58579C15.6249 2.21071 15.1162 2 14.5858 2V4ZM10 12C10 13.1046 10.8954 14 12 14V12H12H10ZM18 12V14C19.1046 14 20 13.1046 20 12H18ZM12 4V4V2C10.8954 2 10 2.89543 10 4H12ZM6 13C6 13.5523 5.55228 14 5 14V16C6.65685 16 8 14.6569 8 13H6ZM5 14C4.44772 14 4 13.5523 4 13H2C2 14.6569 3.34315 16 5 16V14ZM4 13C4 12.4477 4.44772 12 5 12V10C3.34315 10 2 11.3431 2 13H4ZM5 12C5.55228 12 6 12.4477 6 13H8C8 11.3431 6.65685 10 5 10V12ZM16 13C16 13.5523 15.5523 14 15 14V16C16.6569 16 18 14.6569 18 13H16ZM15 14C14.4477 14 14 13.5523 14 13H12C12 14.6569 13.3431 16 15 16V14ZM14 13C14 12.4477 14.4477 12 15 12V10C13.3431 10 12 11.3431 12 13H14ZM15 12C15.5523 12 16 12.4477 16 13H18C18 11.3431 16.6569 10 15 10V12Z" fill="#3A713E" />
</svg>
